<?xml version="1.0" encoding="UTF-8"?>
<svg width="109px" height="99px" viewBox="0 0 109 99" version="1.1" xmlns="http://www.w3.org/2000/svg" xmlns:xlink="http://www.w3.org/1999/xlink">
    <!-- Generator: sketchtool 42 (36781) - http://www.bohemiancoding.com/sketch -->
    <title>11F6AABA-1D29-4636-A4C6-2B2CDEB2DF82</title>
    <desc>Created with sketchtool.</desc>
    <defs></defs>
    <g id="Page-1" stroke="none" stroke-width="1" fill="none" fill-rule="evenodd">
        <g id="Home" transform="translate(-250.000000, -3344.000000)" fill="#FFFFFF">
            <g id="Page-1" transform="translate(250.000000, 3344.000000)">
                <text id="STUDENT-AFFAIRS-COUN" font-family="Roboto-Bold, Roboto" font-size="12" font-weight="bold">
                    <tspan x="1.40449438" y="83.1880342">STUDENT</tspan>
                    <tspan x="53.7462913" y="83.1880342" letter-spacing="-0.0297203"> </tspan>
                    <tspan x="56.7048522" y="83.1880342">AFFAIRS</tspan>
                    <tspan x="103.562274" y="83.1880342" letter-spacing="-0.0297203"> </tspan>
                    <tspan x="1.40449438" y="97.1880342">COUNCIL</tspan>
                </text>
                <path d="M61.4187764,23.4892844 C61.2587944,23.7161051 61.0933394,23.8474581 61.0988125,23.9731235 C61.1023208,24.0788829 61.3229276,24.2730685 61.4128824,24.2565479 C61.5470427,24.2321731 61.7161465,24.0689976 61.7454765,23.9389988 C61.7665267,23.8439373 61.5857752,23.7068969 61.4187764,23.4892844 L61.4187764,23.4892844 Z M50.6583038,16.3397595 C50.435171,16.2035316 50.2889419,16.0448248 50.1870586,16.0686579 C50.0521966,16.0991264 49.9525587,16.2717809 49.8373436,16.3837694 C49.9636452,16.4846539 50.081246,16.6483711 50.2193357,16.6661105 C50.3216399,16.6793812 50.4506079,16.5034766 50.6583038,16.3397595 L50.6583038,16.3397595 Z M65.8063526,15.1066672 C65.5896752,14.954054 65.4507435,14.7857327 65.3530703,14.8050971 C65.2176469,14.8321802 65.1132376,15.0015848 64.9963385,15.1100525 C65.1136586,15.219739 65.21891,15.3919873 65.354193,15.4179871 C65.4524275,15.4373515 65.5912189,15.2633427 65.8063526,15.1066672 L65.8063526,15.1066672 Z M56.8775334,16.1576258 C56.6536989,15.9853774 56.5227663,15.8075771 56.4144276,15.819629 C56.2759169,15.8354726 56.1566321,16.0051481 56.0294885,16.1080638 C56.1334768,16.2207293 56.229045,16.4138317 56.3435584,16.4252065 C56.476596,16.4384773 56.6268949,16.2926349 56.8775334,16.1576258 L56.8775334,16.1576258 Z M51.7562854,29.0804494 C51.6101966,29.3172908 51.45667,29.4585291 51.4659322,29.5881216 C51.4730892,29.6925268 51.7056245,29.8804833 51.7895448,29.8581398 C51.9210388,29.8238797 52.0804595,29.6517668 52.0984223,29.5225805 C52.1114735,29.4198003 51.9297396,29.2925098 51.7562854,29.0804494 L51.7562854,29.0804494 Z M68.0233661,22.0295068 C68.1927505,21.7854883 68.3542762,21.6533229 68.3535745,21.5222408 C68.3520309,21.4181064 68.1544391,21.2355665 68.042171,21.2336707 C67.9287803,21.2317749 67.7269784,21.4053774 67.7198213,21.5118139 C67.7108399,21.6401876 67.8666118,21.7787175 68.0233661,22.0295068 L68.0233661,22.0295068 Z M61.8940913,15.1963121 C61.6417689,15.0193242 61.4817869,14.8224303 61.361239,14.8430134 C61.2009764,14.8707736 61.0714471,15.0672613 60.9287263,15.1910309 C61.0686404,15.3214359 61.1931176,15.525236 61.3539416,15.556517 C61.4712617,15.5802147 61.6369975,15.3774979 61.8940913,15.1963121 L61.8940913,15.1963121 Z M53.6656845,20.9277674 C53.6680702,20.866018 53.6696139,20.8041332 53.6717189,20.74279 C53.5194553,20.6446139 53.3632624,20.4655948 53.2142265,20.4712822 C53.0757158,20.4771051 52.8243757,20.6958009 52.8389705,20.7897791 C52.8626872,20.9413089 53.0465261,21.1522861 53.1941586,21.1788275 C53.3293013,21.2041501 53.5071058,21.0197144 53.6656845,20.9277674 L53.6656845,20.9277674 Z M48.3120417,15.9255239 C48.2783612,15.6959948 48.1442009,15.5110174 47.8354637,15.5077675 C47.5159208,15.5039758 47.3358709,15.6555056 47.3375549,15.9740026 C47.3382566,16.2683956 47.5060973,16.4250711 47.8005203,16.4448418 C48.0810501,16.4639353 48.3123223,16.2405 48.3120417,15.9255239 L48.3120417,15.9255239 Z M53.5285771,25.173987 C53.520999,24.8992292 53.2949192,24.7024707 53.0000752,24.7230538 C52.6941447,24.7439078 52.5470736,24.9119582 52.5542307,25.2031013 C52.5615281,25.4976297 52.7355436,25.6479407 53.0305279,25.661076 C53.3109174,25.6732634 53.5362955,25.4446823 53.5285771,25.173987 L53.5285771,25.173987 Z M60.9029047,19.6242591 C61.1348786,19.6132905 61.3069294,19.4670419 61.334014,19.1806384 C61.3605374,18.894912 61.1556482,18.6825807 60.8586991,18.6825807 C60.5573997,18.6825807 60.3861909,18.842777 60.3536332,19.1225452 C60.3216368,19.3933759 60.5470149,19.6155925 60.9029047,19.6242591 L60.9029047,19.6242591 Z M59.0663395,15.8737952 C59.0319575,15.6335683 58.8912014,15.4538721 58.5884986,15.4339661 C58.3031974,15.4151433 58.0650488,15.6282871 58.0737496,15.9049407 C58.081889,16.1905317 58.2399063,16.3596655 58.542609,16.3771341 C58.8314186,16.3937902 59.0628312,16.1825422 59.0663395,15.8737952 L59.0663395,15.8737952 Z M52.6589206,16.3458531 C52.6642534,16.0224813 52.4888345,15.8679723 52.203814,15.834931 C51.9283362,15.8031084 51.6861179,16.0342624 51.6820482,16.3042806 C51.6781188,16.5737572 51.9126187,16.8074841 52.1890788,16.788526 C52.4808354,16.7686199 52.658219,16.6230484 52.6589206,16.3458531 L52.6589206,16.3458531 Z M56.1870848,25.826689 C56.1945225,25.4128597 55.9844409,25.1932159 55.6985784,25.2120387 C55.4075234,25.2315385 55.2330869,25.390787 55.2154047,25.6781384 C55.1995469,25.9472087 55.4369938,26.1760606 55.7173833,26.1625191 C56.014613,26.1478943 56.18091,25.9952811 56.1870848,25.826689 L56.1870848,25.826689 Z M69.9103115,25.8056996 C69.9212577,25.4098805 69.7093517,25.1890181 69.4014566,25.1983617 C69.0810716,25.208247 68.9144938,25.3994535 68.8784277,25.6846383 C68.8448876,25.9523545 69.1198041,26.2135707 69.4069296,26.2031437 C69.7225432,26.1909563 69.8934713,26.0237184 69.9103115,25.8056996 L69.9103115,25.8056996 Z M44.6363853,48.1983904 C44.9176168,48.1987967 45.1919719,47.9473303 45.1636242,47.6835412 C45.1337329,47.4028252 44.9823113,47.2049833 44.6589793,47.1910355 C44.3513648,47.1783065 44.1317404,47.3831899 44.125706,47.6820516 C44.1199523,47.9817258 44.3338229,48.1981196 44.6363853,48.1983904 L44.6363853,48.1983904 Z M60.3892783,47.893435 C60.362334,47.6307292 60.2128771,47.4400644 59.8955795,47.4152834 C59.5996128,47.3918565 59.34294,47.6228751 59.3503777,47.9084661 C59.3582365,48.2093591 59.5232706,48.3928469 59.8386035,48.4177633 C60.1384995,48.4418672 60.3814195,48.2146403 60.3892783,47.893435 L60.3892783,47.893435 Z M42.0912684,57.9327238 C42.0901457,57.6442891 41.8587332,57.4211246 41.5643102,57.4249162 C41.2742376,57.4291141 41.0321596,57.6658202 41.0550342,57.9507341 C41.0788912,58.2425542 41.2481353,58.4195421 41.5643102,58.4301045 C41.8726264,58.440396 42.0925314,58.2280648 42.0912684,57.9327238 L42.0912684,57.9327238 Z M44.2838636,17.9841082 C43.9897213,17.9835666 43.7437139,18.216481 43.7497483,18.4889367 C43.7560634,18.7599028 44.0194723,19.0124525 44.2976165,18.9867236 C44.5963898,18.9592342 44.7869649,18.8074336 44.7934203,18.4946241 C44.7988934,18.1906166 44.5938638,17.9849207 44.2838636,17.9841082 L44.2838636,17.9841082 Z M52.6265032,45.8416214 C52.630573,45.5717386 52.3747421,45.3223035 52.0900022,45.3339492 C51.7784584,45.3472199 51.6009345,45.5143225 51.5758145,45.8122363 C51.5525189,46.0979627 51.7830894,46.3319605 52.0780738,46.340627 C52.3623926,46.3486166 52.6229949,46.1116397 52.6265032,45.8416214 L52.6265032,45.8416214 Z M39.7937025,41.1198231 C39.7660565,40.8598256 39.612951,40.674442 39.2956534,40.649661 C38.9804608,40.6254216 38.7504516,40.8315238 38.7504516,41.1335001 C38.7504516,41.4429242 38.9248881,41.6139538 39.2350286,41.6430681 C39.5298726,41.6709636 39.7844404,41.4388617 39.7937025,41.1198231 L39.7937025,41.1198231 Z M63.6777501,22.2434631 C63.3722407,22.2376402 63.1472836,22.4478049 63.1477046,22.7390833 C63.1477046,23.0225077 63.3902036,23.267474 63.6749434,23.2471617 C63.9789092,23.2252245 64.1619062,23.0535178 64.1877278,22.7591248 C64.2136898,22.471638 63.9832596,22.2490151 63.6777501,22.2434631 L63.6777501,22.2434631 Z M64.1342601,16.4155921 C64.1342601,16.122147 63.9053736,15.8985762 63.611512,15.9038574 C63.3249478,15.9088678 63.0709413,16.1542404 63.0940966,16.4284565 C63.1190762,16.7208183 63.2893027,16.8972645 63.6046356,16.9112123 C63.9112677,16.9247538 64.1342601,16.7114746 64.1342601,16.4155921 L64.1342601,16.4155921 Z M56.76723,47.3492007 C56.7589502,47.0497973 56.5438166,46.8468097 56.2513583,46.844643 C55.9489362,46.8419347 55.7099455,47.0721408 55.7200497,47.3578673 C55.7294521,47.6416979 55.985704,47.8725811 56.280969,47.8442792 C56.5934952,47.8134045 56.7569855,47.6356042 56.76723,47.3492007 L56.76723,47.3492007 Z M42.4756462,24.5782948 C42.1767325,24.585201 41.9614585,24.8106675 41.9702996,25.1073626 C41.9790003,25.4010785 42.2092902,25.6051495 42.5176064,25.5847018 C42.8364477,25.5638478 42.9943246,25.3761621 43.0107438,25.0854253 C43.0266017,24.8083655 42.7637541,24.5724719 42.4756462,24.5782948 L42.4756462,24.5782948 Z M49.8061892,53.2426127 C50.1133827,53.2394982 50.3303407,53.0259481 50.3179912,52.7273573 C50.3049401,52.4226727 50.1226448,52.259768 49.8176967,52.238914 C49.5293081,52.2188726 49.2793713,52.4593703 49.2751613,52.7371072 C49.2705302,53.0217503 49.5050301,53.2443731 49.8061892,53.2426127 L49.8061892,53.2426127 Z M66.2670726,18.0737532 C66.5655653,18.0714511 66.7931888,17.8453075 66.7783133,17.5549769 C66.7623151,17.2516465 66.5819845,17.0867106 66.2746507,17.0680233 C65.9799471,17.0501485 65.7433421,17.2807608 65.7382901,17.5681122 C65.733659,17.8519428 65.9678783,18.0763261 66.2670726,18.0737532 L66.2670726,18.0737532 Z M37.9648558,57.9994836 C37.6673455,57.9967753 37.4238641,58.230096 37.442248,58.5188015 C37.4606319,58.8234861 37.6373138,58.9946511 37.9554534,58.9992553 C38.277382,59.0042656 38.4520992,58.8313402 38.4766578,58.5289577 C38.5003745,58.2387626 38.2629275,58.0024628 37.9648558,57.9994836 L37.9648558,57.9994836 Z M55.3090082,19.3007518 C55.0043408,19.3075226 54.7969255,19.5203955 54.8000129,19.8235905 C54.8039423,20.1244835 55.0183743,20.3305856 55.3273921,20.3289607 C55.6480578,20.3274711 55.878067,20.0937442 55.8620688,19.7858096 C55.8467722,19.4916875 55.6211134,19.2938456 55.3090082,19.3007518 L55.3090082,19.3007518 Z M44.4966116,30.3805723 C44.5068561,30.0775127 44.2535513,29.8049216 43.9407444,29.7837968 C43.6342526,29.7622657 43.3490917,30.0117008 43.3287431,30.3186875 C43.3078332,30.6466635 43.563664,30.9216921 43.8983632,30.9287337 C44.2156608,30.9357753 44.4856655,30.6886422 44.4966116,30.3805723 L44.4966116,30.3805723 Z M71.8117115,56.0568148 C72.1899145,56.0560023 72.4973887,55.7668905 72.5060894,55.4030294 C72.5157726,55.0211581 72.205211,54.7126819 71.8094661,54.7130882 C71.4378588,54.7137652 71.1249116,55.0100541 71.1155092,55.3682277 C71.1048437,55.7480678 71.4190539,56.0578981 71.8117115,56.0568148 L71.8117115,56.0568148 Z M74.2517175,46.0432549 C73.8903546,46.0387862 73.568426,46.342252 73.5550941,46.7006965 C73.5402186,47.089474 73.8387113,47.3861691 74.2451217,47.3861691 C74.6342709,47.3865753 74.9350089,47.1116821 74.9460954,46.7448419 C74.9581642,46.3765121 74.6323062,46.0474528 74.2517175,46.0432549 L74.2517175,46.0432549 Z M54.4442635,30.2188863 C54.0284506,30.2255217 53.7535342,30.5000086 53.7569023,30.9061193 C53.7591476,31.3061363 54.0469749,31.5853628 54.4584373,31.587394 C54.8798636,31.5895606 55.1869167,31.2833865 55.1740059,30.8748384 C55.1615161,30.4836234 54.859515,30.2126572 54.4442635,30.2188863 L54.4442635,30.2188863 Z M52.4971143,37.544045 C52.4964126,37.1548613 52.2003056,36.860062 51.8018943,36.8523433 C51.3999747,36.8446247 51.0536277,37.1658299 51.052084,37.5474304 C51.051663,37.9062811 51.3877655,38.2324967 51.7658282,38.24008 C52.1823427,38.2483403 52.4979563,37.9478536 52.4971143,37.544045 L52.4971143,37.544045 Z M59.2536869,23.0277889 C58.8606083,23.0344242 58.5524325,23.3350463 58.5478014,23.7174593 C58.5434511,24.1058306 58.8813779,24.4305566 59.2831572,24.4224317 C59.6703417,24.4148484 59.9844116,24.1040702 59.9863763,23.7266675 C59.9890427,23.3259735 59.6694997,23.0211535 59.2536869,23.0277889 L59.2536869,23.0277889 Z M67.0233384,24.9409371 C67.0233384,24.5272432 66.6959366,24.2056317 66.2687567,24.201163 C65.8356826,24.1965589 65.4754425,24.5475555 65.4863886,24.962739 C65.4973347,25.3688497 65.8380683,25.6788154 66.2694583,25.6744821 C66.7095491,25.6702843 67.0233384,25.3642455 67.0233384,24.9409371 L67.0233384,24.9409371 Z M45.9952499,24.5904822 C46.432534,24.594003 46.7649878,24.2927038 46.7766356,23.8810411 C46.7881431,23.4604409 46.43506,23.1137776 45.9987583,23.1168922 C45.5711573,23.1202775 45.2500706,23.4375557 45.2492286,23.8570725 C45.2482463,24.28986 45.549686,24.5862843 45.9952499,24.5904822 L45.9952499,24.5904822 Z M62.1718144,29.1485633 C62.6051692,29.1527612 62.9419733,28.841035 62.9470254,28.4315389 C62.9529195,28.0166263 62.6286051,27.6847232 62.2081612,27.6745671 C61.7708771,27.6640047 61.4008135,28.005793 61.4043219,28.4177266 C61.4082513,28.8307434 61.7376177,29.1446363 62.1718144,29.1485633 L62.1718144,29.1485633 Z M49.7364427,29.2965723 C49.307298,29.2916973 48.9664241,29.6047777 48.9536536,30.0141383 C48.9411638,30.4351447 49.2943872,30.7793705 49.7346183,30.7750372 C50.1647453,30.7702977 50.4882177,30.4539674 50.490463,30.0348569 C50.4935504,29.6195379 50.1685344,29.3014472 49.7364427,29.2965723 L49.7364427,29.2965723 Z M49.4223728,21.4625227 C49.4191451,21.8856957 49.7330746,22.2045989 50.1617983,22.2142133 C50.5846279,22.2236924 50.9364479,21.9058726 50.9502008,21.5012515 C50.9640939,21.0902658 50.6016084,20.7226131 50.1801822,20.7203111 C49.765071,20.7184152 49.4261618,21.05086 49.4223728,21.4625227 L49.4223728,21.4625227 Z M63.6186691,32.7233935 C63.614459,33.1354624 63.9401767,33.4646572 64.3618836,33.4742717 C64.7980451,33.4838862 65.1605306,33.1392541 65.1543558,32.7214977 C65.1480407,32.3111891 64.8136223,32.00014 64.3790045,32.00014 C63.9347037,32.0006817 63.6241421,32.2962934 63.6186691,32.7233935 L63.6186691,32.7233935 Z M69.8214794,31.1497315 C69.3905104,31.1455337 69.0473912,31.4559057 69.0302703,31.8652663 C69.0134301,32.2667729 69.3928961,32.6365922 69.8161467,32.6322589 C70.2337839,32.6281965 70.5799905,32.2912831 70.5808325,31.8885578 C70.5823762,31.4766242 70.2502031,31.153794 69.8214794,31.1497315 L69.8214794,31.1497315 Z M57.5800508,31.1314505 C57.5675609,31.5504256 57.8788241,31.8755579 58.3107755,31.8937035 C58.7402008,31.911443 59.0871091,31.6073001 59.1066157,31.1959082 C59.1262626,30.7750372 58.7824417,30.4091449 58.3565247,30.3998013 C57.951658,30.3907284 57.5932423,30.7283189 57.5800508,31.1314505 L57.5800508,31.1314505 Z M52.4804144,30.6851214 C52.4512247,30.6714445 52.4227367,30.6576321 52.3936873,30.6438197 C52.3936873,30.5537685 52.4268064,30.4467904 52.3872319,30.3779994 C52.3072409,30.2378445 52.1953939,30.0177945 52.0842485,30.0103467 C51.8006313,29.9912531 51.3891689,29.8291609 51.2562716,30.1662098 C51.1430211,30.4553216 51.1171995,30.8772758 51.2604816,31.1314505 C51.4060091,31.3884688 51.4490919,31.6150187 51.4497936,31.8763704 C51.4510566,32.1004828 51.4831934,32.3025225 51.7755113,32.3084808 C52.0776528,32.3149807 52.0980013,32.1121285 52.099966,31.8869328 C52.1019307,31.7000596 52.099545,31.5028948 52.1586261,31.3291569 C52.2349684,31.1049091 52.3703917,30.8989423 52.4804144,30.6851214 L52.4804144,30.6851214 Z M36.5018627,44.0281389 C36.9764759,44.0345034 37.3400841,43.6997566 37.3541176,43.2448964 C37.3680107,42.7988382 37.0076303,42.4387688 36.5373674,42.4276647 C36.0628945,42.4166961 35.7034964,42.7534741 35.698304,43.2123967 C35.6928309,43.6879755 36.021636,44.0212327 36.5018627,44.0281389 L36.5018627,44.0281389 Z M64.7361573,16.2151773 C64.7525765,16.3809257 64.7041609,16.616413 64.7991677,16.6994227 C65.0517709,16.9213684 65.0013906,17.1809597 65.0018116,17.4424468 C65.0025133,17.6542364 65.0315626,17.8394846 65.3076017,17.8492345 C65.602165,17.8595261 65.6580184,17.6798299 65.6514227,17.4420405 C65.6467916,17.2626152 65.5865879,16.9938157 65.6831384,16.9182539 C66.0488516,16.6273817 65.9076745,16.258104 65.9245147,15.9159094 C65.9374255,15.6479224 65.7735142,15.5290277 65.4988784,15.5131841 C64.8307431,15.4754032 64.7510328,15.5454129 64.7361573,16.2151773 L64.7361573,16.2151773 Z M68.7083416,22.6665007 C68.681678,22.6547195 68.6551546,22.6426676 68.629333,22.6310218 C68.629333,22.541106 68.659084,22.4375133 68.6225969,22.3641182 C68.5507453,22.2178696 68.4461957,21.9749344 68.3488032,21.9726323 C68.066028,21.9651845 67.6033432,21.9783198 67.532895,22.1261934 C67.3999977,22.406774 67.372492,22.8471448 67.5184405,23.108361 C67.6607403,23.3629419 67.7202423,23.584346 67.7202423,23.8485414 C67.7202423,24.0623622 67.7081735,24.2741519 68.0323476,24.2710373 C68.338699,24.2680582 68.3566619,24.0684559 68.3677484,23.8504372 C68.3763088,23.6605848 68.3645207,23.4623368 68.4188304,23.2834531 C68.4838055,23.0690905 68.6089844,22.8715195 68.7083416,22.6665007 L68.7083416,22.6665007 Z M49.5725313,17.4553112 C49.5848808,17.608466 49.5340795,17.8245889 49.6201049,17.9027236 C49.896565,18.1544607 49.8054875,18.4630724 49.8610602,18.7546216 C49.8866012,18.8878704 50.0475655,19.0737956 50.1749898,19.0969517 C50.4246459,19.1425867 50.4997252,18.9501614 50.4950941,18.7249657 C50.4911647,18.5353842 50.4379777,18.2584597 50.5418257,18.1715231 C50.8544922,17.9103068 50.7739399,17.5951953 50.7899381,17.2838754 C50.809585,16.9289517 50.6361309,16.769297 50.270137,16.7583283 C49.679186,16.7411306 49.5829161,16.8306401 49.5725313,17.4553112 L49.5725313,17.4553112 Z M60.8136516,25.0542798 C60.8316145,25.2192157 60.7840409,25.4556509 60.8786267,25.5350043 C61.1614019,25.7718458 61.1093376,26.0601451 61.1077939,26.3470903 C61.1070922,26.5592861 61.1751547,26.702691 61.4180748,26.7033681 C61.6577671,26.7037743 61.7341093,26.567411 61.7308816,26.3508819 C61.7286363,26.1484359 61.6726426,25.8499804 61.7829459,25.7614188 C62.1103477,25.5000671 61.9992023,25.1812994 62.026287,24.8752607 C62.0584237,24.5127537 61.8702344,24.3613594 61.5106959,24.3470053 C60.9395321,24.3239847 60.8304918,24.432317 60.8136516,25.0542798 L60.8136516,25.0542798 Z M67.0798934,56.8192033 C67.0822791,57.263772 67.4645518,57.6383308 67.9126417,57.6333205 C68.3746248,57.6287164 68.7372506,57.2671573 68.7385137,56.8122971 C68.739917,56.3533745 68.3829046,56.0126694 67.9049233,56.0144298 C67.426521,56.0167319 67.077648,56.3571661 67.0798934,56.8192033 L67.0798934,56.8192033 Z M55.7509234,17.2237509 C55.776324,17.3871973 55.7401176,17.617268 55.8377908,17.7008193 C56.0951653,17.920463 56.0506791,18.181273 56.0529245,18.4449267 C56.0544681,18.6684975 56.0741151,18.8653914 56.3857993,18.8601102 C56.6744685,18.8553707 56.685134,18.6638933 56.7019742,18.4615828 C56.717832,18.2603556 56.6736265,17.9919623 56.7887013,17.8726614 C57.1250844,17.5247793 56.9502269,17.1407413 56.9471396,16.773224 C56.9462975,16.6944123 56.7687737,16.5552053 56.6650661,16.5488408 C55.9661974,16.5056433 55.7173833,16.482081 55.7509234,17.2237509 L55.7509234,17.2237509 Z M41.5818521,32.7558932 C41.573011,32.2652833 41.200281,31.9203804 40.6810412,31.9229533 C40.1508553,31.9256616 39.7861244,32.2943976 39.8028243,32.8123614 C39.8184015,33.2892943 40.2218649,33.6539679 40.7200544,33.6397493 C41.2098238,33.626614 41.5902722,33.2360761 41.5818521,32.7558932 L41.5818521,32.7558932 Z M61.8076449,37.676075 C61.8087676,37.188038 61.4304242,36.8153749 60.9318137,36.8129375 C60.4334839,36.8103646 60.0368969,37.1818089 60.0281962,37.6583356 C60.018092,38.1596433 60.4069605,38.5336605 60.9329364,38.5306814 C61.4520358,38.5268897 61.8068029,38.1799556 61.8076449,37.676075 L61.8076449,37.676075 Z M45.4623976,34.825717 C45.4541178,35.2983166 45.842425,35.698469 46.3267213,35.7174272 C46.8141051,35.7355728 47.2588269,35.3175456 47.2577042,34.8421023 C47.2568622,34.376138 46.8497502,33.980996 46.3643311,33.9762564 C45.8723164,33.9709752 45.4712387,34.3495966 45.4623976,34.825717 L45.4623976,34.825717 Z M68.0445567,37.8040425 C68.03754,37.3238596 67.6462858,36.9555298 67.1448685,36.9574257 C66.643732,36.9595923 66.2558458,37.3311721 66.2512148,37.8121674 C66.246724,38.3094127 66.649205,38.6850549 67.1741986,38.6740862 C67.6768788,38.6639301 68.0524155,38.2893712 68.0445567,37.8040425 L68.0445567,37.8040425 Z M73.5942476,39.2590806 C73.6008434,38.7763248 73.2261487,38.3913389 72.7302046,38.3729225 C72.2231739,38.3539643 71.8145182,38.7420647 71.8140972,39.2428308 C71.8140972,39.738451 72.1837398,40.101635 72.6930158,40.1056975 C73.190644,40.1097599 73.5868099,39.7376385 73.5942476,39.2590806 L73.5942476,39.2590806 Z M47.240022,20.9196425 C46.7842137,21.0730681 46.512946,21.8079673 46.8178941,22.1642451 C47.0267127,22.4090761 47.0278354,22.6380634 47.0227833,22.8977901 C47.0187136,23.1293504 47.0587091,23.3296297 47.3500447,23.3201506 C47.6377316,23.3113486 47.6656583,23.1025381 47.6622903,22.8769361 C47.6583609,22.6283135 47.7018647,22.4148989 47.8430418,22.1695263 C47.9910953,21.9110183 47.9344,21.5179075 47.8876684,21.1946711 C47.8713895,21.0783493 47.6231368,20.9930376 47.482942,20.8952677 C47.6771658,20.7431963 47.803748,20.5366878 47.5573196,20.3376272 C47.4684875,20.2661279 47.1972198,20.2758778 47.1142818,20.3534708 C46.9144446,20.540344 46.9955583,20.7486129 47.240022,20.9196425 L47.240022,20.9196425 Z M54.6975683,15.7785982 C54.7054271,15.530111 54.75272,15.3311858 54.6929372,15.1690936 C54.6725886,15.1138442 54.3209089,15.0817507 54.2274458,15.1590729 C53.9761057,15.3678834 54.1539102,15.5654544 54.3516423,15.7265987 C53.9055171,15.8872013 53.6206369,16.6258921 53.9366715,16.9735034 C54.1664,17.2267301 54.1599446,17.4683111 54.1539102,17.7396835 C54.1495598,17.9605459 54.1937654,18.1360443 54.4639104,18.1315755 C54.728863,18.1272423 54.7758753,17.9489002 54.7774189,17.7312877 C54.7796643,17.4718319 54.7515973,17.23323 54.9757124,16.9879928 C55.2952554,16.6384857 55.0183743,15.8774514 54.6975683,15.7785982 L54.6975683,15.7785982 Z M45.5957159,15.7318799 C45.1321892,15.8851701 44.8655525,16.624538 45.1804644,16.9892115 C45.3818453,17.2218551 45.3803016,17.4442072 45.3790386,17.6949964 C45.3773545,17.9145047 45.3899847,18.1290027 45.6907228,18.1318464 C45.9956709,18.1346901 46.0025473,17.9226296 46.0003019,17.7008193 C45.9967936,17.4414989 45.9918818,17.2135948 46.2204877,16.97567 C46.5457844,16.6371316 46.2655352,15.8838159 45.8118319,15.7298487 C46.0071784,15.5674856 46.1781065,15.3720813 45.9375722,15.1611041 C45.8477577,15.082834 45.5804194,15.070105 45.4880789,15.1411981 C45.2148465,15.3508211 45.3769335,15.5601732 45.5957159,15.7318799 L45.5957159,15.7318799 Z M48.1710049,27.268998 C47.721231,27.4293298 47.4474373,28.2001141 47.7657172,28.5303922 C47.9955861,28.7688586 47.9763602,29.0008251 47.9748165,29.2585206 C47.9741148,29.4674665 47.9902533,29.664225 48.2644681,29.673027 C48.5595927,29.6830477 48.5856951,29.4811434 48.6001496,29.2548644 C48.6136217,29.0487622 48.610394,28.8019 48.7243461,28.6488806 C49.0538529,28.2039057 48.9136581,27.4759127 48.526614,27.3089456 C48.5326484,27.0745416 48.5753103,26.8765643 48.5197376,26.7086493 C48.5013537,26.6527227 48.176478,26.6070877 48.0842778,26.6743892 C47.8117471,26.8743977 47.9527839,27.0913331 48.1710049,27.268998 L48.1710049,27.268998 Z M57.762346,21.4335438 C57.4568366,21.5552822 57.1924453,22.3108999 57.5065152,22.6530945 C57.7219295,22.8872277 57.6966692,23.1087672 57.6966692,23.3535982 C57.6966692,23.5805544 57.7234732,23.7862503 58.0169138,23.7869274 C58.3024957,23.787469 58.3502097,23.589221 58.3471223,23.358744 C58.3438946,23.0972569 58.3412282,22.8666446 58.5515905,22.6205949 C58.8544336,22.2660774 58.5861129,21.5509489 58.2574482,21.4250126 C58.2574482,21.1897961 58.2810245,20.9907355 58.2363979,20.8067061 C58.2274165,20.772446 57.8264791,20.7628315 57.8123053,20.8050811 C57.7540662,20.9824752 57.7739938,21.1834316 57.762346,21.4335438 L57.762346,21.4335438 Z M42.3207163,42.7783905 C42.8273259,42.7693177 43.2215271,42.3733631 43.216054,41.8770658 C43.2111423,41.384831 42.8043109,40.9930743 42.2985433,40.995241 C41.7771985,40.9976785 41.3646134,41.4120495 41.3790679,41.9186383 C41.3936627,42.4050503 41.8120016,42.7874633 42.3207163,42.7783905 L42.3207163,42.7783905 Z M62.1260652,16.506862 C62.0923848,16.4906122 62.0591254,16.4739561 62.025866,16.4573 C62.025866,16.3675196 62.0199719,16.277333 62.0269886,16.1878234 C62.0442499,15.9425862 61.9613118,15.7088593 61.7008499,15.6920678 C61.3754129,15.6704013 60.8911165,15.4996425 60.7538688,15.8502329 C60.6129724,16.2123336 60.5891155,16.7416723 60.7714107,17.0597629 C60.9399531,17.3542914 60.9697042,17.6083306 60.9743352,17.8967653 C60.978405,18.1525649 61.0038056,18.377219 61.3408905,18.3681462 C61.6621174,18.359615 61.7117961,18.1433567 61.7078667,17.8840363 C61.7047793,17.6687258 61.6870971,17.4402801 61.7531949,17.2406779 C61.8372556,16.9840658 61.9980796,16.7503388 62.1260652,16.506862 L62.1260652,16.506862 Z M54.0190482,22.1569326 C53.9860695,22.1401411 53.9530907,22.1230788 53.9194103,22.1061519 C53.920112,21.3516175 53.8679073,21.293118 53.0779612,21.3206074 C52.9118044,21.3262948 52.6161184,21.4193252 52.6081193,21.4951578 C52.5654575,21.893956 52.4662406,22.3646598 52.638151,22.6854588 C52.7891516,22.9679353 52.8367252,23.2135787 52.8412159,23.4964614 C52.8447243,23.7423757 52.8494957,23.9813838 53.1895276,23.99154 C53.5542584,24.0026441 53.5715196,23.758761 53.574607,23.4933469 C53.5776944,23.2789844 53.5753087,23.0531115 53.6453359,22.8555405 C53.732484,22.6104387 53.8910626,22.3886283 54.0190482,22.1569326 L54.0190482,22.1569326 Z M75.0242621,53.7268581 C75.0288931,54.2979047 75.4729133,54.7126819 76.0690567,54.7048278 C76.6332037,54.6968383 77.0775046,54.265405 77.0810129,53.7215769 C77.0845213,53.1685405 76.6139778,52.7083991 76.0425334,52.7074512 C75.47572,52.7058262 75.01921,53.162176 75.0242621,53.7268581 L75.0242621,53.7268581 Z M69.8219004,48.2376609 C70.4007826,48.2327859 70.8706245,47.771155 70.8537843,47.2265144 C70.8342777,46.6671135 70.3652779,46.2436696 69.7776949,46.2561279 C69.2156529,46.2677736 68.7748604,46.7053006 68.7759831,47.2503475 C68.7768251,47.8146233 69.2316511,48.2437546 69.8219004,48.2376609 L69.8219004,48.2376609 Z M40.688479,49.7805835 C40.6949344,49.2247035 40.2354774,48.7809473 39.6505608,48.7778328 C39.0903431,48.7752599 38.6293424,49.2035787 38.6113795,49.7433443 C38.5922939,50.2935369 39.0528737,50.7548971 39.6309138,50.7654595 C40.2121817,50.7756156 40.6817429,50.338224 40.688479,49.7805835 L40.688479,49.7805835 Z M64.2555097,43.3845097 C63.6565595,43.3838326 63.2227838,43.803891 63.2267132,44.3791355 C63.2310636,44.9486925 63.6839249,45.3812092 64.2679995,45.3706468 C64.8311641,45.3608969 65.277149,44.9286511 65.2852884,44.3852292 C65.2939892,43.8209534 64.844917,43.3853221 64.2555097,43.3845097 L64.2555097,43.3845097 Z M48.8629972,43.2244487 C48.8590678,42.6650478 48.391752,42.2257604 47.8097824,42.2341561 C47.2508278,42.241604 46.7957212,42.6810268 46.7873011,43.21998 C46.7794423,43.7648914 47.2624756,44.2387098 47.8253596,44.2383035 C48.395962,44.2380327 48.8669265,43.7781621 48.8629972,43.2244487 L48.8629972,43.2244487 Z M45.4079476,52.4490787 C44.7716684,52.446912 44.2939678,52.9001473 44.2862493,53.5147976 C44.2778292,54.1524686 44.7497761,54.6239848 45.3995275,54.6273702 C46.0178438,54.6307556 46.5244535,54.1547706 46.5359609,53.5613805 C46.5473281,52.9448343 46.0474545,52.4511099 45.4079476,52.4490787 L45.4079476,52.4490787 Z M34.111816,54.6382035 C34.7379911,54.6356306 35.2277605,54.1657393 35.2316899,53.5634117 C35.2346369,52.9567509 34.7151165,52.453412 34.0895027,52.4574744 C33.4790451,52.4604536 32.9776279,52.9501155 32.9731372,53.5460786 C32.9680851,54.1688538 33.4606612,54.641318 34.111816,54.6382035 L34.111816,54.6382035 Z M64.7991677,54.506986 C64.7983257,53.9049293 64.311784,53.4316526 63.6850476,53.4233922 C63.0404886,53.4154027 62.5257395,53.8974814 62.5277042,54.5080693 C62.5296689,55.1037615 63.0288408,55.5890901 63.6460344,55.5951838 C64.2887691,55.6015484 64.7991677,55.1198759 64.7991677,54.506986 L64.7991677,54.506986 Z M57.7004582,17.4814464 C57.6782853,17.4859151 57.6566737,17.4909255 57.6359041,17.495665 C57.7063523,17.7747561 57.6911961,18.1360443 57.8706847,18.3112717 C58.0737496,18.509249 58.1042023,18.6812265 58.1013956,18.9094014 C58.0994309,19.0897747 58.1022376,19.2705542 58.1013956,19.4510629 C58.0994309,19.7594036 58.27078,19.896444 58.5769911,19.8921107 C58.8715545,19.887642 59.0155382,19.7501954 59.0015047,19.4551253 C58.9892956,19.210836 58.994067,18.9651925 59.0017854,18.7206324 C59.0045921,18.6370811 59.0113282,18.5016657 59.0601648,18.4797284 C59.4832751,18.2866261 59.4306494,17.9261504 59.4302284,17.5784038 C59.4289654,16.5181015 59.3363442,16.4361752 58.2355559,16.511737 C57.8788241,16.5359763 57.7043876,16.7145892 57.7004582,17.0559713 C57.6989146,17.1977512 57.7004582,17.3393957 57.7004582,17.4814464 L57.7004582,17.4814464 Z M48.6752288,17.5761017 C48.6752288,16.5841842 48.6752288,16.5841842 47.6523265,16.5887883 C47.5991395,16.5889237 47.5458121,16.5889237 47.4922041,16.5889237 C47.1246666,16.5881112 46.9568258,16.7833802 46.947704,17.118804 C46.9404066,17.4154991 46.9317058,17.7131421 46.9535981,18.0082121 C46.9627199,18.140513 47.0072061,18.3323965 47.102213,18.3853439 C47.3666042,18.5325404 47.3559388,18.7451426 47.3479397,18.9776507 C47.3419053,19.1578886 47.3431683,19.3385327 47.3483607,19.5193122 C47.3567808,19.7932575 47.4822404,19.9428915 47.7921002,19.9484435 C48.1134675,19.9546726 48.2668538,19.8199343 48.2713445,19.517958 C48.2752739,19.2857207 48.2676958,19.0536188 48.2772386,18.8213814 C48.2813083,18.7237469 48.2852377,18.5697797 48.3443187,18.5380925 C48.7730424,18.3107301 48.6599323,17.9256088 48.6752288,17.5761017 L48.6752288,17.5761017 Z M53.8917643,26.7867839 C53.8917643,26.6574623 53.89415,26.5285468 53.8914836,26.399496 C53.8802568,25.9343442 53.7489032,25.8101683 53.2646068,25.8043455 C52.1730806,25.7917518 52.1619941,25.8020434 52.1619941,26.8424397 C52.1619941,26.984355 52.1486623,27.1285723 52.1699932,27.2673731 C52.1861318,27.377872 52.2150408,27.5394225 52.2926461,27.5792346 C52.630573,27.7522955 52.5590021,28.0418135 52.5630718,28.3142692 C52.5661592,28.4821843 52.5156385,28.6736616 52.5838414,28.810702 C52.6549913,28.9542422 52.823253,29.1113241 52.9769199,29.1461258 C53.3270559,29.2252084 53.4887219,29.0300749 53.4926513,28.6904531 C53.4951774,28.3831957 53.3921714,27.9413353 53.5581878,27.7975242 C53.9147792,27.4883709 53.893729,27.1559262 53.8917643,26.7867839 L53.8917643,26.7867839 Z M61.7157254,20.7526753 C61.7161465,19.7729452 61.7000079,19.7576432 60.6897357,19.7638723 C60.6365487,19.7638723 60.5832214,19.7645494 60.5300344,19.7645494 C60.1874765,19.7631953 60.0075669,19.9386936 59.9931124,20.2567843 C59.9778159,20.5779895 59.9769739,20.9008197 59.9953577,21.2208062 C60.0020938,21.3409197 60.0458784,21.5193971 60.1314828,21.5631363 C60.4240814,21.7111453 60.3885766,21.951643 60.3885766,22.1924115 C60.3885766,22.385243 60.3814195,22.5790223 60.3951724,22.7707705 C60.414258,23.0433616 60.5980969,23.1477669 60.8574361,23.1422148 C61.1176174,23.1369336 61.2944395,23.0261639 61.3010353,22.7518123 C61.3065084,22.4949294 61.2994916,22.237234 61.3053857,21.9802156 C61.3069294,21.893956 61.3053857,21.754749 61.3539416,21.7313222 C61.8076449,21.513168 61.7117961,21.1177551 61.7157254,20.7526753 L61.7157254,20.7526753 Z M53.0477891,17.9482231 C53.0477891,17.7808498 53.0528412,17.6132055 53.0469471,17.4463738 C53.0367027,17.1284185 52.8650729,16.9472328 52.5355661,16.9120248 C51.7923515,16.8326714 51.4440399,16.936535 51.343981,17.2689797 C51.3264391,17.3297812 51.3211064,17.395593 51.3204047,17.4596445 C51.318861,17.7559333 51.3060905,18.0528992 51.3264391,18.3475631 C51.3355609,18.4799993 51.3755564,18.676487 51.4690195,18.7257782 C51.7586711,18.8802871 51.7207807,19.1180765 51.7203597,19.3587096 C51.7195176,19.5002186 51.7248504,19.6421339 51.7190966,19.7837784 C51.7052035,20.1034941 51.8202782,20.3165024 52.1899208,20.3070234 C52.5317771,20.2982214 52.6489568,20.1006504 52.6374494,19.7948825 C52.6290293,19.5634576 52.6329587,19.3312203 52.638151,19.0997954 C52.6389931,19.0246399 52.6385721,18.9011411 52.6781465,18.8836725 C53.1255348,18.685966 53.0496135,18.3047718 53.0477891,17.9482231 L53.0477891,17.9482231 Z M56.5794617,27.285925 C56.5794617,27.1213953 56.5801633,26.9800217 56.5794617,26.8385126 C56.5786197,26.5163595 56.4085335,26.3338195 56.0822545,26.2937366 C55.3543364,26.2047687 54.9875006,26.3095802 54.8814072,26.6318688 C54.8610587,26.6919932 54.8524982,26.7580759 54.8524982,26.8215857 C54.8501125,27.1306035 54.8321496,27.4412464 54.859094,27.7480976 C54.8721451,27.8881171 54.9741687,28.0213658 55.0378808,28.1566458 C55.107066,28.3053318 55.214703,28.4476534 55.2424894,28.6032456 C55.2788362,28.8032541 55.2538565,29.0140958 55.2514708,29.2199272 C55.2490851,29.5154035 55.3810001,29.6822352 55.7048935,29.6800686 C56.019244,29.6773603 56.1687009,29.5243409 56.1671572,29.2248021 C56.1663152,28.9798358 56.1625261,28.7348694 56.1699639,28.49058 C56.1726303,28.4063517 56.1793664,28.2693113 56.2293256,28.2465616 C56.7002902,28.029897 56.5556047,27.6201301 56.5794617,27.285925 L56.5794617,27.285925 Z M53.0090567,47.5658653 C53.0090567,46.4947297 52.9888484,46.4749591 51.9141624,46.4818653 C51.8466612,46.4822715 51.7800021,46.4806465 51.7133429,46.4844382 C51.3771001,46.5013651 51.1981728,46.6742905 51.1911561,46.9980686 C51.1834376,47.3466278 51.1771226,47.6953223 51.1949451,48.0425273 C51.2011199,48.161422 51.2489741,48.3422015 51.3341575,48.3825553 C51.6524375,48.532731 51.6005135,48.788666 51.6005135,49.0408094 C51.6009345,49.2340471 51.5941984,49.4278265 51.6030395,49.6210642 C51.6180554,49.9196551 51.7930532,50.0625183 52.0975803,50.0572371 C52.4019671,50.0523622 52.5700885,49.9123427 52.5678432,49.604679 C52.5646155,49.3341191 52.5630718,49.0634238 52.5693869,48.7924576 C52.5714919,48.7072814 52.5754213,48.5653661 52.6214512,48.5460017 C53.1244121,48.3388162 52.985761,47.9122578 53.0090567,47.5658653 L53.0090567,47.5658653 Z M45.5451953,49.3809728 C45.5456163,48.3489723 45.5345298,48.3384099 44.4940856,48.3400349 C44.4410389,48.3400349 44.3874309,48.3392224 44.3342439,48.3404411 C43.9199748,48.3516806 43.7421702,48.5052416 43.7277157,48.8937483 C43.7149452,49.2145473 43.7122789,49.537513 43.7330485,49.8587182 C43.7413282,49.9900711 43.7849724,50.1866942 43.8784356,50.2343604 C44.1836644,50.3917131 44.1551764,50.6373565 44.1485806,50.8928853 C44.1445109,51.0738003 44.1485806,51.2537673 44.1484403,51.4337343 C44.1467563,51.7500646 44.3030895,51.9082297 44.637087,51.9074172 C44.9766979,51.9060631 45.1177347,51.735846 45.1145069,51.4233073 C45.1118406,51.1666952 45.1098759,50.9084581 45.1177347,50.6510335 C45.1198397,50.5657218 45.1257338,50.4284106 45.1749914,50.40539 C45.6778119,50.1716631 45.5141812,49.7315632 45.5451953,49.3809728 L45.5451953,49.3809728 Z M70.3140556,27.4118613 C70.3140556,27.2121236 70.3210723,27.0442085 70.3127925,26.8772414 C70.294128,26.5141928 70.1199722,26.3604964 69.7257709,26.346684 C68.8041905,26.3143197 68.5405009,26.4022043 68.5072415,26.8088566 C68.4752451,27.192353 68.4901206,27.5816721 68.5131355,27.9665226 C68.5201523,28.0812194 68.5960736,28.2462907 68.6899577,28.291384 C68.9390525,28.4105496 68.930492,28.6004019 68.925019,28.8093478 C68.9203879,29.0150437 68.9293694,29.2216876 68.923756,29.4275189 C68.9156165,29.7405993 69.0576356,29.9193475 69.3924751,29.9212434 C69.7433128,29.9236808 69.8989444,29.7419534 69.8919277,29.4111337 C69.8864546,29.1661673 69.8881386,28.9213363 69.8927697,28.6767762 C69.8938923,28.5880791 69.8853319,28.4385805 69.9282744,28.4200286 C70.4438655,28.2005203 70.2917423,27.7610975 70.3140556,27.4118613 L70.3140556,27.4118613 Z M64.525374,18.0881072 C64.525374,17.920463 64.5269177,17.7530896 64.524532,17.5857162 C64.5207429,17.2619381 64.3465871,17.0886064 64.015677,17.0563776 C63.1785783,16.97567 62.8203028,17.0837315 62.730348,17.4463738 C62.724033,17.4711548 62.7201036,17.49729 62.7198229,17.5226127 C62.7194019,17.9086819 62.7084558,18.295699 62.7268397,18.6812265 C62.7311901,18.7852255 62.7944812,18.9381095 62.8774192,18.9771091 C63.1660885,19.1164515 63.1555633,19.3474701 63.1472836,19.5944677 C63.1402668,19.7871638 63.1512129,19.9806723 63.1453189,20.1740455 C63.1359164,20.4792717 63.2888816,20.6234891 63.6018289,20.6309369 C63.9119694,20.6382493 64.0845815,20.4905112 64.1045091,20.2011286 C64.1235947,19.9324645 64.1087192,19.6606858 64.1143326,19.3906676 C64.1153149,19.301158 64.1040881,19.1527428 64.1478727,19.1333784 C64.6527983,18.9056098 64.5046044,18.470114 64.525374,18.0881072 L64.525374,18.0881072 Z M41.5683799,26.7629508 C41.5426986,26.7701278 41.5171576,26.7773049 41.491336,26.784211 C41.5814311,27.0811769 41.5958856,27.4381318 41.7836539,27.6569631 C41.9470039,27.8476279 42.0142244,28.0030847 42.0097337,28.2243534 C42.0058043,28.4308619 42.0105757,28.6369641 42.0097337,28.8432017 C42.00819,29.1661673 42.1771535,29.3139055 42.5080636,29.3038847 C42.8260629,29.2946765 42.9610652,29.1369176 42.9491367,28.8349413 C42.9395939,28.5775167 42.943804,28.3190088 42.9499787,28.0615842 C42.9522241,27.9749183 42.9551711,27.8319197 43.0023237,27.811472 C43.4863394,27.6027969 43.4053661,27.1935717 43.4057871,26.8126483 C43.4069097,25.7478773 43.3629849,25.7072527 42.2541974,25.7268879 C41.7581129,25.7355545 41.5775017,25.9056362 41.5686606,26.3759337 C41.5659942,26.5048491 41.5683799,26.6341708 41.5683799,26.7629508 L41.5683799,26.7629508 Z M67.1734969,19.2645959 C67.1734969,18.2217622 67.1586214,18.2074081 66.0735506,18.214856 C66.0335551,18.2151268 65.9932789,18.2136373 65.9530027,18.2151268 C65.5533284,18.2304288 65.358824,18.3979376 65.3404401,18.7795381 C65.3244419,19.101285 65.3178462,19.4265527 65.3463342,19.74681 C65.358824,19.8880482 65.4281496,20.0881921 65.5380319,20.1461499 C65.8078963,20.2891485 65.8052299,20.496334 65.7961081,20.7318214 C65.7879687,20.9254653 65.8032652,21.1193801 65.7925997,21.3128887 C65.7750579,21.6386981 65.9304088,21.7918528 66.2644063,21.7918528 C66.6082272,21.7921237 66.7384582,21.6090421 66.7334061,21.2993472 C66.7298977,21.0413809 66.728775,20.7831438 66.7364935,20.5250421 C66.7400018,20.439595 66.7506673,20.3010651 66.8023106,20.2780445 C67.2934834,20.0590778 67.1535693,19.6357694 67.1734969,19.2645959 L67.1734969,19.2645959 Z M40.6058216,59.6141764 C40.6825849,59.9164235 40.6776732,60.2810971 40.8599684,60.5010116 C41.0158807,60.6895098 41.0967137,60.8352168 41.088855,61.0585167 C41.0805752,61.2903478 41.03651,61.53721 41.1055548,61.7488642 C41.1552334,61.9037794 41.3453875,62.0928192 41.5015804,62.1234231 C41.9189369,62.2018286 42.0410284,62.025924 42.0573073,61.5051166 C42.0689551,61.1208078 41.9039211,60.6821974 42.3852704,60.4165124 C42.4533329,60.378867 42.4816806,60.2323476 42.484768,60.1349839 C42.4971174,59.7866956 42.5046955,59.4386781 42.4863116,59.0909315 C42.4687698,58.7580805 42.2710376,58.5747281 41.9158496,58.5751343 C40.9194705,58.5755406 40.6117157,58.4360628 40.6058216,59.6141764 L40.6058216,59.6141764 Z M60.764394,49.6021061 C60.8245977,48.5301581 60.6232169,48.5301581 59.5869827,48.5472204 C59.5471275,48.5478975 59.507974,48.5548037 59.4674172,48.5584599 C59.154891,48.58947 58.9745604,48.7615829 58.9608076,49.0585488 C58.9448094,49.4179412 58.9474757,49.7792294 58.9686663,50.1388926 C58.9752621,50.255079 59.0363078,50.429494 59.1247189,50.4698477 C59.4302284,50.6081068 59.3851808,50.8511774 59.3851808,51.0892376 C59.3856018,51.2828816 59.3906539,51.4757131 59.3839178,51.6697633 C59.3738137,51.9770207 59.5408124,52.123811 59.8412698,52.135863 C60.1640405,52.1476441 60.3450728,51.9931352 60.3509668,51.6743674 C60.3544752,51.4032658 60.3509668,51.1331122 60.3533525,50.8624169 C60.3540542,50.7857718 60.3424064,50.6544189 60.3767885,50.6400648 C60.90094,50.4265148 60.740116,49.9833003 60.764394,49.6021061 L60.764394,49.6021061 Z M57.1528708,49.0408094 C57.1532918,48.0021736 57.1075426,47.958299 56.0275238,47.9753613 C55.9872476,47.9760384 55.9473925,47.9741426 55.9075373,47.9764446 C55.5617517,47.9945903 55.3551785,48.166297 55.3394609,48.5026687 C55.3234627,48.8494675 55.3179897,49.1993808 55.3464777,49.54469 C55.3578448,49.6833553 55.4353098,49.874291 55.5464552,49.936582 C55.7681846,50.0615704 55.7701493,50.2274542 55.7642552,50.4242128 C55.7572384,50.6303149 55.7670619,50.836688 55.7614485,51.0417068 C55.7509234,51.3692766 55.8754006,51.5462645 56.2485516,51.5458582 C56.6260529,51.5455874 56.737058,51.355735 56.7296202,51.034936 C56.7245681,50.7902405 56.7241471,50.546222 56.7320059,50.3011202 C56.7343916,50.2162148 56.7418293,50.0787682 56.791508,50.0561538 C57.2800144,49.8327184 57.1277508,49.4092746 57.1528708,49.0408094 L57.1528708,49.0408094 Z M40.1952012,42.8462336 C40.1952012,42.6919955 40.2002533,42.5368095 40.1940785,42.3827068 C40.1827114,42.0834388 40.0565501,41.8574306 39.7316744,41.788775 C39.1140598,41.6589117 38.5570698,41.7811918 38.4104197,42.0740952 C38.3823527,42.1298863 38.3617234,42.1956982 38.3613024,42.257583 C38.356952,42.6305169 38.3436202,43.004805 38.3677578,43.3766556 C38.3761779,43.5034043 38.485078,43.6237886 38.5455624,43.7479645 C38.6221853,43.9061296 38.730103,44.0586073 38.7615381,44.224762 C38.7995689,44.4244997 38.7720632,44.6353414 38.7708002,44.8414436 C38.7692565,45.1599405 38.8878396,45.3516886 39.2618326,45.3503345 C39.6373693,45.3480324 39.7509003,45.1603467 39.7389719,44.8365686 C39.7301307,44.5916022 39.7323761,44.3466358 39.7405155,44.1028882 C39.7431819,44.0186598 39.752444,43.8862236 39.804368,43.8602238 C40.2573696,43.6317781 40.2015163,43.232032 40.1952012,42.8462336 L40.1952012,42.8462336 Z M37.0080513,60.2007958 C37.0667113,60.4836785 37.0288209,60.8778726 37.2077481,61.0246628 C37.4912249,61.2567648 37.4704554,61.4930646 37.4746654,61.7651141 C37.4774721,61.9458936 37.4727007,62.1264022 37.4767704,62.3071818 C37.4830855,62.5996789 37.6636968,62.7155945 37.9440862,62.7189799 C38.2417369,62.7241257 38.433575,62.6095643 38.4404514,62.2954006 C38.4432581,62.1663498 38.4398901,62.0377052 38.4419951,61.9090606 C38.4483102,61.5764805 38.3489529,61.2170881 38.7576087,61.0023193 C38.834372,60.9619655 38.867491,60.7970296 38.8726834,60.6874786 C38.8874186,60.3532735 38.8874186,60.0169017 38.8766128,59.6820195 C38.865807,59.3438874 38.6582514,59.1487538 38.3210262,59.1362956 C37.1728047,59.0917439 37.0000522,59.1403581 37.0080513,60.2007958 L37.0080513,60.2007958 Z M62.7142095,24.4068589 C62.7596781,24.6821584 62.7034037,25.0710713 62.8704025,25.209872 C63.2225032,25.5016921 63.1656675,25.8306161 63.1676321,26.1756544 C63.1715615,26.785836 63.287338,26.9727092 63.6694704,26.9671572 C64.0349029,26.9621468 64.1325761,26.7954505 64.1369265,26.1938001 C64.1393122,25.8376577 64.0320962,25.4511822 64.472187,25.2224657 C64.548389,25.1822473 64.5812274,25.0158218 64.5859988,24.9059999 C64.6008743,24.5709823 64.6098557,24.2339335 64.5867004,23.8997284 C64.5660712,23.5943667 64.3877053,23.3850146 64.0509011,23.3824417 C63.073748,23.3744522 62.6787047,23.2286098 62.7142095,24.4068589 L62.7142095,24.4068589 Z M45.1923929,20.1932745 C45.1923929,19.9747141 45.1984273,19.806799 45.1912702,19.6396965 C45.176114,19.2914081 44.9598577,19.1433991 44.6219308,19.1175348 C43.780201,19.0532125 43.4769369,19.1531491 43.3893679,19.5294683 C43.3858595,19.5424682 43.3817898,19.5550619 43.3817898,19.5679263 C43.3829124,19.9671308 43.3729487,20.3666061 43.3920342,20.7649981 C43.397367,20.86832 43.4664118,21.022829 43.5503322,21.058714 C43.8409661,21.1834316 43.8077067,21.410794 43.8041983,21.6397814 C43.801953,21.8332899 43.8120571,22.0272047 43.802795,22.2200362 C43.7869371,22.5466581 43.960672,22.7037399 44.2796536,22.705094 C44.6027049,22.7064482 44.7674583,22.5301374 44.7697037,22.2182758 C44.7716684,21.9605804 44.7666163,21.7022079 44.772791,21.4446478 C44.7750364,21.3587945 44.772791,21.2174209 44.819663,21.195619 C45.3191155,20.9620275 45.1713427,20.5255838 45.1923929,20.1932745 L45.1923929,20.1932745 Z M50.7211739,54.6074642 C50.7211739,53.4135069 50.6904405,53.382903 49.6537853,53.3854759 C49.600879,53.3854759 49.547271,53.3841218 49.4935227,53.3854759 C49.1031105,53.3976633 48.9008876,53.5769533 48.8864331,53.950158 C48.8736626,54.2717695 48.8721189,54.5941935 48.8902222,54.9149925 C48.8969583,55.035783 48.9356907,55.2134479 49.0219968,55.2603016 C49.3816756,55.457331 49.30814,55.7724425 49.3119291,56.0718459 C49.3143148,56.2254069 49.306456,56.3805929 49.3165601,56.5345602 C49.3360667,56.8331511 49.5047495,56.9607124 49.816574,56.9550249 C50.1150667,56.9490666 50.2636816,56.8131096 50.2764521,56.536456 C50.2869772,56.292573 50.275189,56.0473357 50.2824865,55.8038589 C50.2857142,55.6902454 50.2716807,55.5071639 50.3320247,55.4758829 C50.7992002,55.2324061 50.7256646,54.8218267 50.7211739,54.6074642 L50.7211739,54.6074642 Z M54.3301711,21.5707195 C54.406373,21.8726958 54.3993563,22.2400777 54.5837565,22.4568777 C54.7520183,22.6556674 54.835237,22.8118013 54.8240102,23.0494553 C54.8141867,23.2682865 54.8231682,23.4879303 54.8224665,23.7066261 C54.8216245,24.0331125 55.0183743,24.1759757 55.3278131,24.1759757 C55.6215344,24.176382 55.8069171,24.0325709 55.8151968,23.7289696 C55.8202489,23.5358673 55.825301,23.3422233 55.8163195,23.1495273 C55.802286,22.8638008 55.7916205,22.5996055 56.1143912,22.4268155 C56.2089771,22.3765764 56.2516389,22.182797 56.2614624,22.050767 C56.2837757,21.7565094 56.2719875,21.4585956 56.2693211,21.1623068 C56.2645497,20.6448847 56.0866049,20.4760217 55.5460342,20.4718239 C54.406373,20.4628864 54.3975319,20.4710114 54.3301711,21.5707195 L54.3301711,21.5707195 Z M44.9428771,32.2747624 C44.9428771,32.107389 44.9451225,31.9396094 44.9420351,31.7718297 C44.932773,31.2924593 44.7242351,31.0878467 44.2364304,31.0820239 C43.9827046,31.0791801 43.7284174,31.0748468 43.4752529,31.0840551 C43.1507982,31.0965133 42.9287881,31.2651054 42.9084396,31.575342 C42.8799515,32.0245148 42.8924414,32.4774792 42.9084396,32.9281415 C42.9123689,33.032953 42.9759407,33.1940973 43.0578964,33.2279511 C43.4540623,33.3957308 43.3678966,33.7196443 43.3729487,34.0183706 C43.3758957,34.224202 43.3702823,34.4308458 43.3758957,34.6370834 C43.3850175,34.9566637 43.5712421,35.0974956 43.8907851,35.100881 C44.2211339,35.1038602 44.4357062,34.9716948 44.446933,34.632073 C44.4570371,34.3100553 44.446091,33.9873605 44.4517044,33.6649365 C44.4536691,33.5796248 44.4564758,33.4387929 44.5037687,33.4172618 C45.0470058,33.17216 44.9399301,32.7052478 44.9428771,32.2747624 L44.9428771,32.2747624 Z M70.6108642,57.6092165 C70.6108642,57.8533704 70.5839199,58.1028055 70.619565,58.342897 C70.6445447,58.5093225 70.7110635,58.7475181 70.8354004,58.8085904 C71.2030783,58.9882866 71.181607,59.2744193 71.1730466,59.5827601 C71.1660298,59.8534554 71.1675735,60.1244215 71.1730466,60.3947106 C71.182028,60.8249252 71.3450974,60.9826841 71.772979,60.989184 C72.2489956,60.9959548 72.443921,60.8310189 72.4564108,60.3856377 C72.467357,60.0122976 72.442237,59.6374679 72.4684796,59.2649402 C72.4774611,59.1407643 72.5925359,59.0222759 72.6636857,58.9041937 C72.7845142,58.7025602 72.9899648,58.512437 73.0156461,58.300512 C73.0692541,57.842808 73.0438535,57.3744063 73.0270133,56.9108795 C73.0114361,56.5218312 72.7321693,56.2646774 72.3334773,56.2530317 C71.986569,56.2428755 71.6392397,56.2428755 71.2919104,56.2530317 C70.8839563,56.2654899 70.6292481,56.5161437 70.6124079,56.9131816 C70.6027248,57.1440648 70.6108642,57.3769792 70.6108642,57.6092165 L70.6108642,57.6092165 Z M75.451021,48.9537373 C75.451021,48.747906 75.4541084,48.5423454 75.451021,48.3361078 C75.4448463,47.8319564 75.1892961,47.5857713 74.6636009,47.577511 C74.3836324,47.5737194 74.1035236,47.572636 73.8227131,47.5779172 C73.329716,47.5880734 73.0458182,47.8450917 73.0324863,48.3109206 C73.0199965,48.747906 73.0094714,49.187058 73.0392224,49.6224184 C73.0512912,49.8014375 73.1241251,50.0770078 73.2500057,50.1300906 C73.6881318,50.3156096 73.597756,50.6525231 73.6016854,50.9733221 C73.6047728,51.2311529 73.597756,51.4889838 73.6036501,51.7460021 C73.6157189,52.1675502 73.815556,52.3479234 74.2571905,52.3426422 C74.6753891,52.3385798 74.8694725,52.1584773 74.8771909,51.7549395 C74.883506,51.4074637 74.888558,51.05904 74.8748052,50.7129183 C74.8658238,50.4808164 74.9139587,50.3321303 75.1463536,50.1914337 C75.3032482,50.0954243 75.3955887,49.8440933 75.4400749,49.647064 C75.4890518,49.425389 75.451021,49.185433 75.451021,48.9537373 L75.451021,48.9537373 Z M53.0484908,39.8871371 C53.0484908,39.6550351 53.0539639,39.4233394 53.0469471,39.1912375 C53.0320716,38.7178254 52.7563132,38.4495676 52.2745429,38.4400885 C51.9409664,38.4339948 51.6072496,38.4318281 51.2739538,38.4407656 C50.8230572,38.4528175 50.5552978,38.7095651 50.5478601,39.1420817 C50.53944,39.631202 50.5286342,40.1219473 50.5552978,40.6103905 C50.5639986,40.7742431 50.6392182,41.0213761 50.7594854,41.0768964 C51.1922788,41.2747383 51.1194449,41.619235 51.1187432,41.9558776 C51.1179012,42.2268437 51.1138315,42.4971328 51.1202869,42.7674218 C51.129549,43.1739388 51.3149316,43.3482183 51.7363578,43.3599995 C52.2007266,43.3732702 52.4137553,43.2176779 52.4398576,42.8100777 C52.4604868,42.4764142 52.4519264,42.1412612 52.4451903,41.8061082 C52.4404189,41.5206526 52.4298938,41.2701342 52.7731534,41.1062816 C52.9186809,41.0357302 52.9996542,40.7703161 53.037264,40.5810054 C53.0820309,40.3570284 53.0477891,40.1189682 53.0484908,39.8871371 L53.0484908,39.8871371 Z M55.7088228,33.2214512 C55.7088228,33.0027554 55.7110682,32.7835179 55.7079808,32.5646867 C55.7005431,32.0632436 55.4403618,31.7971524 54.9291212,31.7813088 C54.6090169,31.7708818 54.2870882,31.7695277 53.9676856,31.7827984 C53.5047201,31.8016211 53.2182963,32.0747539 53.2087535,32.5130934 C53.197246,32.9894847 53.1891066,33.4675009 53.2150685,33.9430797 C53.2237693,34.1092343 53.2940772,34.3625965 53.4136427,34.416898 C53.8679073,34.6239481 53.7764089,34.9883509 53.7783735,35.3367746 C53.7794962,35.5810639 53.7727601,35.8264365 53.7811802,36.0708613 C53.7960558,36.5300548 54.0161012,36.7339903 54.4752775,36.727355 C54.9142456,36.720855 55.1149248,36.5207111 55.1227836,36.0708613 C55.1282566,35.6975211 55.1048207,35.3221497 55.1333087,34.9508408 C55.1443952,34.8151546 55.2354726,34.6483229 55.344934,34.5640945 C55.582802,34.3814192 55.7287504,34.1816815 55.7106472,33.8790282 C55.6981574,33.6604678 55.7088228,33.4408241 55.7088228,33.2214512 L55.7088228,33.2214512 Z M48.148832,9.04506922 L46.165757,9.04506922 C46.2492564,10.8389165 46.3316331,12.5959309 46.4148518,14.3693305 L47.8944045,14.3693305 C47.9795879,12.5882122 48.0637889,10.8306562 48.148832,9.04506922 L48.148832,9.04506922 Z M58.0215449,26.0499889 C58.0215449,26.2944137 57.9957232,26.5427655 58.0298247,26.7831277 C58.0536816,26.9506365 58.1158501,27.1989883 58.2368189,27.2526128 C58.6752257,27.4474755 58.591586,27.7960346 58.5939717,28.1296981 C58.595375,28.3872581 58.589902,28.6449536 58.595375,28.9027844 C58.6044968,29.3376031 58.7926861,29.5265076 59.2162174,29.5362575 C59.7027591,29.5469553 59.9187348,29.3701028 59.935575,28.9167322 C59.9496085,28.543392 59.9483455,28.1689686 59.935575,27.795493 C59.9284179,27.5866825 59.9828679,27.4627774 60.1848101,27.333862 C60.3466164,27.2301338 60.4886355,26.991532 60.5054758,26.8016796 C60.5501023,26.302674 60.5324201,25.7977101 60.5183866,25.2954545 C60.5058968,24.8976042 60.2489432,24.6418046 59.8412698,24.6204089 C59.4681189,24.6017216 59.0925822,24.6033466 58.7194312,24.6197319 C58.294637,24.6377421 58.0361398,24.905052 58.0228079,25.3150898 C58.0146685,25.5599207 58.0208432,25.8048871 58.0215449,26.0499889 L58.0215449,26.0499889 Z M61.1598582,14.3778617 C61.2458836,12.5892955 61.3312073,10.8140001 61.4163907,9.04060052 L59.4067924,9.04060052 C59.4935195,10.837427 59.5768786,12.6027017 59.6624829,14.3778617 L61.1598582,14.3778617 Z M49.0207338,34.9777885 L49.0219968,34.9777885 C49.0219968,35.2094841 49.0131557,35.4417215 49.0239615,35.6734172 C49.0415034,36.0770904 49.2852654,36.271276 49.7451435,36.2620678 C50.1825679,36.2539428 50.4019116,36.0627364 50.40963,35.6633964 C50.4172081,35.2253277 50.4184711,34.786582 50.408367,34.3486487 C50.4038763,34.1529735 50.458607,34.0457245 50.6476383,33.9252048 C50.833863,33.8046852 51.0241573,33.5599896 51.0436639,33.3548353 C51.0979736,32.7931324 51.0874485,32.2228983 51.0560134,31.6576746 C51.0328581,31.2492618 50.7347864,31.0084933 50.3132198,30.9965768 C49.9257547,30.9852019 49.5381492,30.9856081 49.1511051,30.9958997 C48.6975421,31.0078162 48.4026981,31.2892094 48.3931553,31.7287676 C48.3819285,32.2568876 48.3648076,32.7873095 48.4039611,33.3132628 C48.4182753,33.508938 48.5341921,33.7854562 48.6906657,33.8637263 C49.0226985,34.0302872 49.0399597,34.2642849 49.0219968,34.552178 C49.0131557,34.6934162 49.0207338,34.8353315 49.0207338,34.9777885 L49.0207338,34.9777885 Z M67.6048869,27.4023822 L67.6076936,27.4023822 C67.6076936,27.1449576 67.6259372,26.8860434 67.6033432,26.6301084 C67.5641897,26.1660399 67.2700474,25.9057716 66.7927678,25.8949384 C66.4458595,25.8868134 66.0985302,25.8873551 65.7512009,25.8946675 C65.2340661,25.9044174 64.9313634,26.194748 64.9243466,26.6884724 C64.9180315,27.164999 64.9333281,27.6416611 64.9199962,28.118594 C64.9094711,28.465122 65.0615943,28.700203 65.3534913,28.8897845 C65.4496208,28.9528881 65.5395756,29.096293 65.5442067,29.2069273 C65.5658183,29.6700479 65.543084,30.1349288 65.5579595,30.5981848 C65.5704493,30.986556 65.8008795,31.1620543 66.2538811,31.1623252 C66.7091281,31.162596 66.9308575,30.9880456 66.941102,30.5962889 C66.9520481,30.1844908 66.9505045,29.7716094 66.9422247,29.359405 C66.9375936,29.1208031 66.9446104,28.9440861 67.2282276,28.8021708 C67.4101018,28.7114425 67.5379471,28.4293723 67.5911341,28.2110827 C67.6518992,27.9541998 67.6048869,27.6732129 67.6048869,27.4023822 L67.6048869,27.4023822 Z M62.3465316,9.02909021 C62.487428,10.825375 62.3465316,12.6132641 62.6876862,14.3960073 C63.1347937,14.3960073 63.5477999,14.3851741 63.9596833,14.4003406 C64.2111638,14.4090072 64.2750162,14.298102 64.2883481,14.0792708 C64.3465871,13.0662284 64.4341562,12.0546757 64.4799054,11.0408209 C64.5100775,10.3775564 64.4857995,9.71226072 64.4857995,9.02909021 L62.3465316,9.02909021 Z M63.5219782,30.8844528 C63.5219782,30.6527572 63.5267496,30.4209261 63.5215572,30.1893658 C63.5075237,29.6539334 63.2302216,29.3799882 62.6857215,29.3683424 C62.3520047,29.3611654 62.0180072,29.3614362 61.6848517,29.3683424 C61.1469474,29.3799882 60.84649,29.6623292 60.8337195,30.1848971 C60.8210893,30.6607467 60.8269834,31.1374087 60.8320355,31.6139354 C60.8359649,31.9318907 60.9697042,32.17293 61.2579524,32.3519491 C61.3620811,32.4166777 61.4555442,32.574572 61.4622803,32.6948208 C61.4864179,33.1312646 61.4660693,33.5698749 61.4732264,34.0075374 C61.4801029,34.4350437 61.6964995,34.6305835 62.1497818,34.6365417 C62.6384286,34.6425 62.8629647,34.4605018 62.8769982,34.0175581 C62.890751,33.6061662 62.8892074,33.1932848 62.8774192,32.7814867 C62.8715251,32.5604888 62.9290625,32.4290005 63.1387231,32.2839706 C63.3249478,32.1547844 63.4488636,31.8839536 63.5075237,31.6538829 C63.5694115,31.4112186 63.5215572,31.1420129 63.5219782,30.8844528 L63.5219782,30.8844528 Z M51.5233292,23.9591757 C51.5233292,23.7017511 51.529925,23.4440557 51.5217855,23.1871727 C51.5078923,22.7392187 51.2077156,22.4399508 50.7440485,22.4222113 C50.4111737,22.4097531 50.0775972,22.4169301 49.7434594,22.4196385 C49.1522278,22.4245134 48.8541561,22.692365 48.8353512,23.2625991 C48.820195,23.7257196 48.8063018,24.1915485 48.8441923,24.652367 C48.8617341,24.8665941 48.9436898,25.1848202 49.0983391,25.2592986 C49.5269224,25.466755 49.4797698,25.7917518 49.4741564,26.134759 C49.4691044,26.4179125 49.470227,26.7013368 49.4737354,26.9846258 C49.4797698,27.5059749 49.6690818,27.6905461 50.189304,27.6886503 C50.678091,27.6867544 50.8766652,27.4909438 50.8812962,26.9983027 C50.8842433,26.5863692 50.8849449,26.1741648 50.8797525,25.7623667 C50.8777879,25.5901184 50.8838223,25.4647237 51.0992366,25.3767038 C51.3855202,25.2602465 51.534135,25.0118948 51.5250132,24.6928562 C51.5179965,24.4487023 51.5233292,24.2038713 51.5233292,23.9591757 L51.5233292,23.9591757 Z M47.3503254,26.3519652 C47.3503254,26.1205403 47.3522901,25.8887092 47.3496237,25.6568781 C47.344291,25.0955815 47.048184,24.81473 46.4562506,24.8095842 C46.1630906,24.8067405 45.869229,24.8070113 45.575648,24.8090425 C44.9751542,24.8135113 44.6815732,25.07229 44.6619263,25.6448262 C44.6463491,26.1076759 44.633719,26.5736402 44.6702061,27.0341878 C44.6870463,27.2501753 44.7628272,27.5720576 44.9163538,27.6472132 C45.3558833,27.8617111 45.303819,28.2006557 45.2998896,28.5523294 C45.2976442,28.848212 45.2931535,29.1446363 45.3015736,29.4403834 C45.3146248,29.9001186 45.5175493,30.0799502 46.0046523,30.0781898 C46.4815109,30.0764294 46.6990303,29.8821083 46.7063277,29.4336126 C46.7134848,28.9959502 46.6929959,28.5573398 46.7178352,28.1208961 C46.7247116,28.0013243 46.8216831,27.8476279 46.9263731,27.780191 C47.2064819,27.5995469 47.3622539,27.3767887 47.3520094,27.0473231 C47.344291,26.8156274 47.3503254,26.5839317 47.3503254,26.3519652 L47.3503254,26.3519652 Z M59.6981281,33.6373118 C59.6981281,33.4053453 59.7027591,33.1740558 59.697286,32.9422247 C59.6824105,32.4048965 59.3770414,32.1100973 58.8258052,32.1004828 C58.5055606,32.095337 58.1854563,32.095337 57.8652116,32.1004828 C57.3332014,32.1088786 57.0116937,32.3956883 56.9937308,32.9056626 C56.9764696,33.3936995 56.9646814,33.8849865 57.0014492,34.3718047 C57.0167458,34.5722194 57.1110509,34.8722999 57.2605078,34.9397367 C57.7000372,35.1385265 57.6328167,35.4732733 57.6312731,35.8114054 C57.630431,36.1071526 57.6281857,36.4035768 57.6321151,36.699324 C57.6391318,37.1673195 57.8374253,37.3631301 58.3048814,37.3685467 C58.8074213,37.3750466 59.0386935,37.1850589 59.052727,36.7251883 C59.0663395,36.3267963 59.0652169,35.9266439 59.052306,35.5281165 C59.0452893,35.2962854 59.1043704,35.158568 59.3249771,35.0075798 C59.5119034,34.8804248 59.6241715,34.6005213 59.6847962,34.3676068 C59.744579,34.137807 59.6981281,33.8818719 59.6981281,33.6373118 L59.6981281,33.6373118 Z M49.0483798,9.02949646 C49.1541924,10.7502195 49.2591631,12.4201617 49.357117,14.0902394 C49.3703085,14.3144873 49.4567549,14.4123926 49.7005169,14.4003406 C50.033953,14.3842262 50.3694942,14.3843616 50.70279,14.4003406 C50.9509024,14.4123926 51.0272447,14.304602 51.0411379,14.084552 C51.0926409,13.2623099 51.1785259,12.4416928 51.2072946,11.6193153 C51.2369053,10.7624069 51.21375,9.90346721 51.21375,9.02949646 L49.0483798,9.02949646 Z M69.0963681,36.8153749 C69.0963681,37.0213417 69.0935614,37.2277147 69.0967891,37.4336815 C69.1042269,37.8947708 69.3440595,38.1241644 69.8102526,38.1211853 C70.2854272,38.116852 70.4983155,37.9060103 70.5040693,37.42014 C70.5091213,37.0335291 70.5103843,36.6475953 70.5029466,36.2612553 C70.4998592,36.0468928 70.5377497,35.9082274 70.7587774,35.761708 C70.9594566,35.6290009 71.1264553,35.3378579 71.1549433,35.099256 C71.2136034,34.6039066 71.1921321,34.096099 71.1632231,33.595333 C71.1354368,33.1215147 70.8671161,32.8724858 70.3700493,32.8401215 C69.9858118,32.8158822 69.595961,32.8173717 69.2117235,32.8471631 C68.7345843,32.8848086 68.4783324,33.1702642 68.468509,33.6420513 C68.4579838,34.1307654 68.4345479,34.6231356 68.4802971,35.1085997 C68.5013474,35.3286497 68.6179658,35.6283239 68.7917007,35.7266354 C69.0826153,35.8908943 69.1167167,36.0858924 69.0987538,36.3522544 C69.0876673,36.50568 69.0963681,36.6610014 69.0963681,36.8153749 L69.0963681,36.8153749 Z M65.7288876,35.2131404 C65.7288876,34.9810384 65.732817,34.7496136 65.7277649,34.5175116 C65.7172398,33.9877667 65.4406394,33.7029882 64.8934729,33.680103 C64.5468453,33.6649365 64.1983933,33.6642594 63.8521866,33.680103 C63.341788,33.704207 63.0588725,33.9697565 63.0416112,34.4557622 C63.0237887,34.9581532 62.997546,35.4652838 63.0553641,35.9614457 C63.0823084,36.1988288 63.2958984,36.4161705 63.4250067,36.6424495 C63.4993843,36.7717712 63.6315799,36.8978429 63.6397193,37.031227 C63.6683477,37.4676708 63.6346673,37.9081769 63.6569806,38.3450269 C63.6797148,38.7798456 63.9226349,38.9572398 64.4115623,38.9458649 C64.8663882,38.9351671 65.0745052,38.7458564 65.0843286,38.3087356 C65.0944327,37.871344 65.0721195,37.4320565 65.0972394,36.9950711 C65.1042562,36.8738744 65.2031924,36.7200425 65.3092857,36.6498974 C65.5865879,36.46492 65.733659,36.2334951 65.7293086,35.9089045 C65.7265019,35.6776151 65.7288876,35.4453777 65.7288876,35.2131404 L65.7288876,35.2131404 Z M37.9704692,45.9416934 C37.9704692,45.6578628 37.980012,45.3740322 37.9685045,45.0908787 C37.948577,44.5949876 37.6176668,44.2748657 37.1062858,44.2606471 C36.7188207,44.2500847 36.3310749,44.2510326 35.9437501,44.2598346 C35.4040214,44.272022 35.0683399,44.5907897 35.0583761,45.1060452 C35.0488333,45.6473004 35.0592181,46.1893681 35.0552887,46.7310295 C35.0527627,47.0721408 35.212043,47.3091177 35.5025366,47.4986992 C35.6082089,47.5684382 35.7051804,47.7266033 35.7112148,47.8488834 C35.7350718,48.3248684 35.7107938,48.8031554 35.724266,49.2794113 C35.7375978,49.7753023 36.0047958,49.989394 36.5624874,49.9807274 C37.0575896,49.9731442 37.2981239,49.7486255 37.3050003,49.2688489 C37.312017,48.8049158 37.2908265,48.3392224 37.3165078,47.8769143 C37.3240859,47.7425823 37.4195137,47.5749381 37.5302381,47.4917931 C37.8008041,47.2871804 37.980854,47.0594118 37.9724339,46.715863 C37.9662592,46.4572197 37.9708902,46.1995242 37.9704692,45.9416934 L37.9704692,45.9416934 Z M69.3513569,59.5363126 C69.3513569,59.2393467 69.3599174,58.9423808 69.3489712,58.6459566 C69.3345167,58.209242 69.0713885,57.9053699 68.6179658,57.8725994 C68.1528954,57.8390164 67.6827729,57.8382039 67.2184041,57.8700265 C66.7240036,57.9045575 66.4549813,58.2142524 66.4490872,58.6909145 C66.4427722,59.2336592 66.4208799,59.7776228 66.460735,60.3169822 C66.4779963,60.5402821 66.5793182,60.8667685 66.7458959,60.9488302 C67.1676028,61.154797 67.1429038,61.4654399 67.1319577,61.8134573 C67.1205906,62.1618811 67.1242393,62.5097631 67.131256,62.8585931 C67.1417812,63.3639633 67.3748777,63.5734508 67.9095544,63.5727737 C68.4349689,63.571555 68.6895367,63.3458176 68.6961325,62.8575098 C68.7039912,62.379629 68.6851863,61.9013419 68.7083416,61.4253569 C68.7138147,61.3055143 68.8096635,61.1499221 68.9144938,61.0815373 C69.2058295,60.8914141 69.3642678,60.6543018 69.3533216,60.3104822 C69.3454629,60.0527868 69.3521989,59.7946851 69.3513569,59.5363126 L69.3513569,59.5363126 Z M74.2475074,42.1237926 C74.2475074,41.827233 74.2534015,41.5305379 74.2466654,41.2334366 C74.2350176,40.7054521 73.8899336,40.3747678 73.3360311,40.3650179 C72.9081494,40.3586534 72.4802678,40.3578409 72.0526668,40.3658304 C71.5094297,40.375174 71.157329,40.7092437 71.1456812,41.2414261 C71.1331914,41.83441 71.1417518,42.4280709 71.1439972,43.0210548 C71.1448392,43.3724577 71.3094523,43.621622 71.6165054,43.8197346 C71.7390179,43.8986818 71.8449709,44.0873154 71.8535313,44.2315328 C71.8825807,44.7331113 71.8552154,45.236721 71.8688279,45.7396537 C71.8832824,46.2673673 72.1520241,46.4991984 72.7105577,46.4960839 C73.2578645,46.493511 73.5172037,46.2500342 73.5237994,45.7178518 C73.5301145,45.2027317 73.5172037,44.6855805 73.5320792,44.1704604 C73.5351666,44.0645656 73.5942476,43.9031505 73.675642,43.8668592 C74.1293453,43.6600799 74.2790828,43.3150416 74.2508755,42.858421 C74.2350176,42.6145379 74.2482091,42.3688944 74.2475074,42.1237926 L74.2475074,42.1237926 Z M41.5031241,37.4591396 C41.9590728,37.2841829 42.2426899,37.0149772 42.2504084,36.5574087 C42.2595302,35.9526437 42.2710376,35.3463891 42.2459177,34.7418949 C42.2243061,34.2198687 41.8526988,33.8964968 41.307497,33.8822782 C40.933925,33.8730699 40.5603531,33.8794344 40.1863601,33.8807886 C39.4758436,33.8845802 39.1339873,34.2076813 39.1216379,34.8989767 C39.1136388,35.3367746 39.1379167,35.7752495 39.1156034,36.2123703 C39.0852911,36.7943856 39.2362916,37.2602144 39.8711675,37.462525 C39.8711675,38.0857065 39.8666768,38.6906069 39.8731322,39.2953719 C39.8787456,39.8064295 40.1121228,40.0018339 40.690584,40.0018339 C41.2687645,40.0012922 41.4970897,39.8064295 41.5015804,39.2926636 C41.5070535,38.6876278 41.5031241,38.0831336 41.5031241,37.4591396 L41.5031241,37.4591396 Z M47.9120867,37.7586784 C47.9120867,37.462525 47.9164371,37.1652882 47.910964,36.8685932 C47.9012809,36.3223276 47.5458121,35.9706539 46.9895239,35.9617165 C46.5616423,35.9548103 46.1337606,35.9539978 45.7061596,35.9621227 C45.1672729,35.9725497 44.8049278,36.3142027 44.7934203,36.8390726 C44.7805095,37.432869 44.7896312,38.0262591 44.7908943,38.6196493 C44.7913153,38.9729479 44.9470872,39.2605702 45.2739276,39.4051938 C45.4945343,39.5021512 45.5175493,39.6343166 45.5148829,39.8267418 C45.5077258,40.3295391 45.5036561,40.8330134 45.5153039,41.3358106 C45.5268114,41.8524202 45.7989211,42.0834388 46.3615244,42.0823555 C46.9252504,42.080866 47.1796779,41.8528265 47.188098,41.3207795 C47.1960971,40.8047116 47.1768712,40.2876957 47.1993248,39.7732527 C47.2047979,39.6539518 47.3024711,39.4976825 47.4071611,39.4318706 C47.7386325,39.2244143 47.9235942,38.9587293 47.9132094,38.5717122 C47.906754,38.3007461 47.9120867,38.0295091 47.9120867,37.7586784 L47.9120867,37.7586784 Z M62.4797096,40.5537869 L62.4780256,40.5537869 C62.4780256,40.2562793 62.4889717,39.9593134 62.4756399,39.6637017 C62.4522039,39.151967 62.1217148,38.8160015 61.5943356,38.7925747 C61.1407726,38.7733457 60.6849643,38.7725332 60.231261,38.7944705 C59.7027591,38.8212827 59.3823741,39.1644253 59.3753574,39.6818474 C59.367639,40.274425 59.3801288,40.8678151 59.3715683,41.4610698 C59.3667969,41.8219518 59.5224285,42.0945429 59.8506723,42.243906 C60.0564035,42.3378843 60.1056611,42.4582686 60.0999074,42.6601729 C60.0872772,43.1369704 60.0940133,43.6140387 60.0966797,44.0915133 C60.0999074,44.6821951 60.3529315,44.9373176 60.9259196,44.9362343 C61.4977851,44.9350156 61.7492655,44.6813826 61.7560016,44.0851487 C61.7621764,43.5948097 61.7465992,43.1037936 61.7661057,42.6145379 C61.7700351,42.4998411 61.8463774,42.3340927 61.9413842,42.283989 C62.3469526,42.0724702 62.4959885,41.7516712 62.4808323,41.327144 C62.4717105,41.0693132 62.4797096,40.810399 62.4797096,40.5537869 L62.4797096,40.5537869 Z M67.9764942,42.4945599 C68.5350278,42.296041 68.740759,41.9147113 68.7146567,41.3721019 C68.6910804,40.8707943 68.7173231,40.3673199 68.7074996,39.8653352 C68.6958518,39.2975386 68.3492242,38.9435628 67.769921,38.9190526 C67.3564938,38.9013132 66.941102,38.9019903 66.5285169,38.9186464 C65.9527221,38.9420732 65.5896752,39.3044447 65.5787291,39.8614081 C65.5684846,40.427986 65.572835,40.995241 65.5778871,41.561548 C65.5811148,41.9389506 65.7500782,42.2175001 66.0996529,42.4118211 C66.2077109,42.4719455 66.3105765,42.6349856 66.3164706,42.7549636 C66.3407486,43.2685941 66.3230663,43.7846621 66.3276974,44.3003238 C66.3335915,44.8418498 66.5749678,45.0633893 67.1444475,45.0637956 C67.7101382,45.0644727 67.9703195,44.8315582 67.9749505,44.3069591 C67.9804236,43.7143815 67.9764942,43.1218039 67.9764942,42.4945599 L67.9764942,42.4945599 Z M43.8992052,44.8712349 C43.8992052,44.5749461 43.9024329,44.2786573 43.8983632,43.9827747 C43.8907851,43.4320404 43.5379827,43.0542316 42.9666786,43.0259298 C42.5139577,43.0026383 42.0581493,43.0011488 41.6058494,43.0267423 C41.0388957,43.0584295 40.690163,43.4396237 40.6865143,43.9949621 C40.6821639,44.5871335 40.690163,45.1793049 40.6837076,45.7718825 C40.6794975,46.1448164 40.8435492,46.4308137 41.1818971,46.5866768 C41.3929611,46.6833633 41.4257995,46.8117371 41.4228524,47.0068706 C41.4131693,47.5348551 41.4065736,48.0640584 41.4232734,48.5909596 C41.4412363,49.1385793 41.7429567,49.3655354 42.3889191,49.3503689 C42.9070362,49.338317 43.1597797,49.0888819 43.1644107,48.5743035 C43.1687611,48.0330483 43.1583763,47.4921993 43.1721292,46.9521628 C43.1743745,46.8464034 43.2319119,46.6893216 43.3138676,46.6485616 C43.7644835,46.4259387 43.936394,46.0787337 43.9024329,45.6053216 C43.8847507,45.3618448 43.8992052,45.1162013 43.8992052,44.8712349 L43.8992052,44.8712349 Z M77.8581886,57.0445345 L77.8538382,57.0445345 C77.8538382,56.6962462 77.8660473,56.3480933 77.8515928,56.0000758 C77.8257712,55.4070919 77.4154314,55.0180436 76.8009041,55.0034187 C76.3065036,54.9920438 75.8125242,54.993398 75.3177027,55.0030125 C74.6902646,55.0150644 74.2517175,55.4173835 74.2372629,56.0171381 C74.2201421,56.6999024 74.2274395,57.3838854 74.2361403,58.0674621 C74.2420343,58.5048538 74.4641848,58.8134654 74.859649,59.0329737 C74.9745834,59.0974314 75.0888162,59.2672423 75.0931666,59.3937202 C75.1170235,60.0116205 75.1010253,60.6312812 75.1056564,61.249994 C75.1091648,61.8237489 75.3849232,62.0704757 76.0115193,62.073184 C76.6698312,62.0765694 76.9687449,61.8301134 76.9746389,61.2623168 C76.9819364,60.6301979 76.9660785,59.9983498 76.9867078,59.3660955 C76.9913388,59.2526174 77.1024842,59.0948585 77.2108229,59.0392028 C77.6262147,58.8218611 77.8538382,58.50851 77.8577676,58.050806 C77.8601533,57.7152468 77.8581886,57.3799583 77.8581886,57.0445345 L77.8581886,57.0445345 Z M66.0610607,47.7179367 C66.0610607,47.3696484 66.0700422,47.0214955 66.058675,46.6732072 C66.0394491,46.0696609 65.6150759,45.6665294 64.9845504,45.6540712 C64.5037624,45.6441858 64.0222728,45.6449983 63.5412041,45.6538003 C62.8922947,45.665446 62.457256,46.0790046 62.4491166,46.6981236 C62.4401351,47.3684297 62.4471519,48.039142 62.4463099,48.7102605 C62.4460292,49.1533396 62.6434806,49.4926905 63.0639245,49.6637201 C63.2866363,49.7541775 63.3120369,49.8829575 63.3096512,50.0766015 C63.3015118,50.6955851 63.3015118,51.3144334 63.3081076,51.9343649 C63.3140016,52.4838804 63.611512,52.7314197 64.2448442,52.7310135 C64.8790184,52.7306072 65.1718977,52.4846929 65.1777918,51.9312503 C65.1841069,51.3124021 65.1843875,50.6934185 65.1758271,50.073487 C65.1730204,49.8791659 65.1985614,49.7513338 65.4257639,49.6656159 C65.8521018,49.5051487 66.0555877,49.1668811 66.0602187,48.7244791 C66.0628851,48.3890553 66.0610607,48.0537668 66.0610607,47.7179367 L66.0610607,47.7179367 Z M41.4788461,53.1455199 C41.4788461,52.7976378 41.4940023,52.4486724 41.4756184,52.1018737 C41.4403943,51.4490362 41.0144774,51.066217 40.3393253,51.0624254 C39.858818,51.0602587 39.37803,51.0567379 38.8973824,51.0632379 C38.3409538,51.0712274 37.9018454,51.4142345 37.8750414,51.9483127 C37.8360282,52.7178782 37.8539911,53.4913707 37.868165,54.2628321 C37.8750414,54.6296723 38.0908767,54.9084925 38.4299263,55.0451266 C38.6689169,55.1418132 38.6968436,55.2825098 38.6933352,55.4895599 C38.6853361,56.0820021 38.6864588,56.6749859 38.6920722,57.2668865 C38.6972646,57.8711099 38.9846708,58.124472 39.6512624,58.1240658 C40.3098549,58.1232533 40.5922091,57.8654224 40.5959982,57.25172 C40.6006292,56.6462779 40.5882797,56.0401587 40.6051199,55.4353937 C40.6082073,55.3217802 40.6845496,55.1493965 40.7768901,55.1078239 C41.2971122,54.8765345 41.4848805,54.4767883 41.4806705,53.9570642 C41.4780041,53.6863689 41.4802495,53.415809 41.4788461,53.1455199 L41.4788461,53.1455199 Z M46.8653274,48.623053 C46.8653274,49.347796 46.8646257,50.055883 46.8653274,50.7642407 C46.8657484,51.1534245 47.0302211,51.460682 47.4290534,51.5595352 C48.1318514,51.7339502 48.7985834,51.5308271 48.7855322,50.6412836 C48.7751474,49.9715192 48.7832868,49.3024319 48.7832868,48.6260321 C49.3172618,48.4517526 49.6348401,48.1266203 49.6372258,47.5756152 C49.6400325,46.9057154 49.6491543,46.2354093 49.6345594,45.5657803 C49.6208066,44.9195782 49.222255,44.5386548 48.553418,44.5206446 C48.099434,44.5077801 47.6447484,44.5134675 47.1909047,44.5183425 C46.4301483,44.5270091 46.0339824,44.9067138 46.0233169,45.6420192 C46.0155985,46.1965451 46.0394554,46.7509356 46.0171422,47.304649 C45.9918818,47.9348721 46.1800712,48.41993 46.8653274,48.623053 L46.8653274,48.623053 Z M68.8554128,52.6394727 C68.8554128,53.3512158 68.8531674,54.0468446 68.8562548,54.7432858 C68.8597632,55.3411446 69.1694827,55.625246 69.8067443,55.6230794 C70.4473739,55.6215898 70.7410952,55.3456133 70.7447439,54.7304213 C70.748954,54.1249792 70.7349205,53.5184538 70.75569,52.9121992 C70.7599001,52.7928983 70.8609414,52.6205145 70.9660523,52.5706817 C71.3991264,52.3668816 71.6165054,52.0422909 71.6236625,51.5912224 C71.6353103,50.9205101 71.6423271,50.2493915 71.6228205,49.579898 C71.6037349,48.9461541 71.1859574,48.5449183 70.535364,48.5218977 C70.0542953,48.5042937 69.5723847,48.503075 69.091737,48.5221686 C68.4150413,48.5495225 68.0202787,48.9605081 68.013683,49.620658 C68.0073679,50.1883192 68.0336106,50.7566575 68.0062452,51.3228291 C67.9769152,51.9584688 68.1662272,52.4408184 68.8554128,52.6394727 L68.8554128,52.6394727 Z M55.5112311,46.4576259 C55.5120731,46.4639904 55.5120731,46.4704904 55.5123537,46.4772612 C56.0721504,46.4501781 56.6354554,46.4474698 57.1911823,46.3889703 C57.6938625,46.3357521 57.7790459,46.1828681 57.6758996,45.7125706 C57.252649,43.7736934 56.8359942,41.8337329 56.3998328,39.8978349 C56.28139,39.3716108 56.1198643,38.8529699 55.9386917,38.3429957 C55.8874694,38.197695 55.6817382,37.9869887 55.5773289,38.0028323 C55.4204343,38.0258529 55.2451558,38.1981012 55.1619371,38.3494956 C55.0387229,38.572931 54.9686957,38.8295431 54.9120003,39.0793844 C54.4197048,41.279207 53.9334438,43.4820087 53.4495685,45.6838625 C53.3293013,46.2297219 53.5170696,46.4466573 54.1087223,46.4562718 C54.5758978,46.4639904 55.0437749,46.4576259 55.5112311,46.4576259 L55.5112311,46.4576259 Z M47.3618329,57.2031059 C47.3618329,56.8422239 47.3646396,56.481342 47.3611312,56.1205954 C47.3550968,55.4102065 46.9053229,54.9535858 46.1781065,54.9367943 C45.6578844,54.9248778 45.1368202,54.925284 44.6164578,54.9367943 C43.8914868,54.9531796 43.4209432,55.4173835 43.4157509,56.1140955 C43.4097164,56.8354532 43.4161719,57.5562691 43.4133652,58.2778976 C43.4118215,58.7625492 43.6258325,59.1329102 44.0793954,59.3325125 C44.2915821,59.4254074 44.3421027,59.5405105 44.3398573,59.7425502 C44.3314372,60.4253144 44.3230171,61.108485 44.3421027,61.7912492 C44.3613286,62.4503158 44.7090789,62.7084175 45.4980427,62.6933864 C46.1358656,62.6805219 46.461443,62.372452 46.4662144,61.7643016 C46.4714068,61.0944018 46.4730908,60.4240957 46.4642497,59.7541959 C46.4613027,59.5443021 46.4984915,59.4170116 46.7321494,59.3151793 C47.1513302,59.1310144 47.3687093,58.7842157 47.3626749,58.323668 C47.3576228,57.9503278 47.3618329,57.5763106 47.3618329,57.2031059 L47.3618329,57.2031059 Z M33.0494794,59.4661674 C33.0494794,60.2557744 33.0447081,61.0409127 33.0515845,61.8261864 C33.0563559,62.4297327 33.3986331,62.7181674 34.0921691,62.7208757 C34.7979142,62.7230423 35.1481905,62.4226911 35.1507165,61.8033012 C35.1538039,61.1072662 35.1418754,60.4112313 35.1611013,59.7160088 C35.1641887,59.5998224 35.2634056,59.4315011 35.3671132,59.3801787 C35.831482,59.1498371 36.0675256,58.7965385 36.0720163,58.3002411 C36.0787524,57.5788835 36.0852078,56.8576613 36.071455,56.136439 C36.0575618,55.4275396 35.6035778,54.9772835 34.8725724,54.950065 C34.3527713,54.930159 33.8310055,54.9297527 33.3109237,54.9508775 C32.5581663,54.9802627 32.1141462,55.4431124 32.1097958,56.1715116 C32.1069891,56.8022764 32.1314074,57.4348016 32.1033404,58.0651601 C32.0731683,58.7542889 32.3294202,59.2401592 33.0494794,59.4661674 L33.0494794,59.4661674 Z M65.6378102,58.1507426 C65.6378102,57.7899961 65.6413185,57.4291141 65.6362665,57.0683676 C65.6275657,56.4281237 65.2333645,55.9755656 64.5765963,55.9326389 C63.9793302,55.8929622 63.3753281,55.894858 62.776799,55.928441 C62.1182064,55.9658157 61.7078667,56.363666 61.6848517,56.9936183 C61.6562234,57.7790274 61.6680115,58.5659261 61.6848517,59.3521477 C61.6949559,59.8040288 61.9409632,60.1440567 62.3716516,60.3135968 C62.5793475,60.3947106 62.6117649,60.5034491 62.6106422,60.6868015 C62.6029238,61.357243 62.6058708,62.0283615 62.6082565,62.6985322 C62.6106422,63.3616612 62.9454817,63.6735228 63.6554369,63.677179 C64.3691811,63.681106 64.7186154,63.3730361 64.7245095,62.7160007 C64.7318069,62.0448822 64.7326489,61.3741699 64.7228255,60.7041347 C64.7197381,60.5026366 64.7709604,60.3837419 64.9786563,60.2919303 C65.4355873,60.0904323 65.6421605,59.7179046 65.6380908,59.2344717 C65.6350035,58.8731835 65.6378102,58.5128433 65.6378102,58.1507426 L65.6378102,58.1507426 Z M58.2363979,14.3771846 C58.3180729,12.5695249 58.3975026,10.803844 58.4776339,9.03599639 L52.2505456,9.03599639 C52.3340449,10.8318749 52.4171233,12.5999934 52.4995,14.3771846 L58.2363979,14.3771846 Z M38.947061,30.3249166 C38.8235662,30.3123229 38.7456802,30.2958023 38.6673732,30.2976981 C37.1586308,30.3345311 35.6500287,30.3723119 34.1414267,30.4118532 C32.3927113,30.4574882 30.6439959,30.5071856 28.8951402,30.5494352 C28.2821566,30.5640601 27.8496439,30.3111042 27.6346505,29.733016 C27.5496075,29.5045703 27.4282176,29.2861453 27.3026177,29.0747619 C26.6382715,27.959481 25.6493302,27.3956114 24.3018328,27.441111 C23.0476582,27.4832252 22.4655483,28.4418305 23.1272282,29.470581 C23.4238966,29.932212 23.8314296,30.3518642 24.2636617,30.7032671 C25.8815848,32.0173378 27.7653025,32.9171729 29.6578613,33.7865395 C31.836423,34.7880715 34.0408064,35.7377395 36.2329806,36.7116468 C36.4563941,36.8110417 36.6736328,36.9226239 36.9265166,37.0439561 C37.6065804,34.7813008 38.2734527,32.5629263 38.947061,30.3249166 L38.947061,30.3249166 Z M42.060956,19.9656412 C42.3848494,18.9007348 42.6954109,17.8786196 43.0051304,16.8565045 C43.1433605,16.3994776 43.293098,15.9451591 43.4108391,15.482851 C43.5743295,14.8365135 44.0065615,14.5054229 44.6686624,14.4132051 C44.7458467,14.4019656 44.821768,14.3778617 44.9911524,14.3376433 C45.0722661,12.5902434 45.1547831,10.8306562 45.2387035,9.03653805 C45.0227278,9.02082987 44.8421166,9.00783 44.6355433,8.99293431 L44.6355433,7.03211984 C44.8261184,7.02060953 45.0199211,7.00828674 45.2141449,6.99664101 C45.2041811,6.96183927 45.1942173,6.92649586 45.1849552,6.89169411 C45.3435338,6.82859055 45.5018318,6.71199792 45.6615331,6.70969586 C46.8524165,6.69452934 48.0423176,6.70102928 49.2330608,6.70102928 L49.6683802,6.70102928 C50.0767552,3.88222306 52.0623562,2.74486942 54.6897095,2.21702034 C54.617858,1.8623675 54.8790215,1.45409018 54.5027832,1.11379137 C54.4707868,1.08548956 54.5204654,0.912022475 54.5809498,0.859210483 C54.9120003,0.572806989 55.2593296,0.303601246 55.6348663,0 C55.8476142,0.235081071 56.0689227,0.485328664 56.2982302,0.729888811 C56.3373837,0.771596743 56.4030605,0.799763138 56.4621415,0.813710921 C56.7895433,0.890762263 56.77144,0.967407359 56.5916708,1.25123796 C56.4328115,1.50135014 56.5011547,1.88701309 56.46986,2.21891615 C59.1047914,2.72983832 61.0823932,3.87423356 61.5123799,6.70102928 L63.2811632,6.70102928 C64.0434634,6.70102928 64.8057635,6.70522715 65.5684846,6.69967512 C65.9315315,6.69696681 66.1411921,6.99664101 66.1685574,7.20667024 C66.2432157,7.78827923 66.1939581,8.38451308 66.1939581,8.98927809 C65.9581951,9.00417378 65.762989,9.01609033 65.5771854,9.02746523 C65.5771854,9.68639639 65.5509427,10.3288069 65.5826585,10.9687799 C65.6350035,12.0225822 65.7288876,13.0743534 65.7938628,14.1276141 C65.8063526,14.3400808 65.893641,14.4071114 66.1052663,14.4348715 C66.7047777,14.5125999 67.0846648,14.8305552 67.2555929,15.4118934 C67.5915551,16.5608927 67.959233,17.7016318 68.309369,18.8322146 C69.2668752,18.3504068 70.1818599,17.8451721 71.1350158,17.4192907 C73.7248996,16.2601352 76.4671873,15.6205685 79.2912904,15.282978 C82.0732929,14.950127 84.8621719,14.8977212 87.6534366,15.1344273 C92.1130046,15.5133195 96.3664204,16.561299 100.168799,18.9368907 C104.230938,21.4748455 106.914987,24.9696452 107.903507,29.5942153 C108.223752,31.0939404 108.285219,32.6126237 108.184318,34.1374007 C108.151479,34.638573 107.975078,34.7955194 107.455558,34.8086547 C104.99801,34.8722999 102.539901,34.9322889 100.081932,34.99133 C96.3944874,35.0812458 92.7076043,35.1710262 89.0201599,35.2568795 C88.3915991,35.272046 87.7606526,35.3056291 87.1371438,35.2613482 C86.7769037,35.2353485 86.4061384,35.1126622 86.0783157,34.9574762 C85.6140872,34.7370199 85.3847797,34.3459404 85.3882881,33.8247266 C85.3996552,32.4827604 85.3937612,31.1405233 85.3913755,29.7984216 C85.3906738,29.2253438 85.1195464,28.8526807 84.5575044,28.6551097 C84.0254942,28.4678303 83.4833798,28.4582158 82.9456158,28.627485 C82.2367833,28.8513266 81.9500787,29.2539164 81.9500787,29.988274 C81.9496577,36.6868658 81.9496577,43.3853221 81.9500787,50.0837785 C81.9500787,50.8299172 82.2219078,51.2319654 82.9776122,51.3912139 C83.4083005,51.4826192 83.8836154,51.4799109 84.3211802,51.413422 C84.8989397,51.3258082 85.4188811,50.8968124 85.4047073,50.0981326 C85.3683605,48.0074548 85.3913755,45.9163707 85.3926385,43.8254221 C85.3929192,43.0683148 85.8600946,42.6364752 86.6482164,42.6538084 C89.9089019,42.726391 93.1691664,42.7949112 96.4294309,42.8681709 C99.8230137,42.9433264 103.216737,43.0180757 106.61032,43.1021686 C108.100257,43.1384599 107.917541,43.4041449 107.898034,44.3618023 C107.825621,47.7802278 107.294874,51.1133415 105.821356,54.2551134 C103.807688,58.5485929 100.431647,61.4586691 95.9420472,63.2106731 C93.3862648,64.2082781 90.7162496,64.7461479 87.9797156,65.009937 C85.4465272,65.2550388 82.907585,65.3282985 80.3763612,65.0624782 C78.8537256,64.9028235 77.3469479,64.5974618 75.8327324,64.3615682 C75.6227912,64.3287977 75.4100432,64.2967043 75.1991196,64.2967043 C71.1863784,64.2925064 67.1734969,64.2967043 63.1610364,64.2883085 C62.8586143,64.2879023 62.5495965,64.2352257 62.2569978,64.1611535 C61.8533942,64.0593212 61.622122,63.813136 61.5318865,63.3854943 C60.8606638,60.2183998 60.1674086,57.0561802 59.479486,53.8928773 C59.3715683,53.3964446 59.1755202,53.2217588 58.6537544,53.1471449 C58.5218394,53.1281867 58.3876791,53.114916 58.2547818,53.114916 C56.4085335,53.1131556 54.5627063,53.1100411 52.7171597,53.1153223 C51.9926097,53.1168119 51.6751718,53.3769448 51.5310476,54.0633652 C50.8885937,57.1184713 50.2257911,60.1681607 49.627262,63.2311208 C49.489874,63.9358223 48.9721779,64.2038093 48.2236306,64.2914231 C48.1182389,64.3037459 48.0094792,64.2931835 47.9025439,64.2931835 C42.1248085,64.293996 36.3448277,64.3623807 30.5689166,64.255538 C28.6231708,64.2188404 26.7248582,64.5386915 24.7931459,64.5446498 C20.3579962,64.5581914 15.9838922,64.2124759 11.7731382,62.7552712 C8.55792129,61.6420215 5.73718626,59.9565065 3.57771011,57.3475941 C1.73076018,55.1170322 0.673475712,52.5567339 0.251207468,49.7493026 C0.109749711,48.8080304 0.0637198063,47.8522688 0.00463873927,46.9004342 C-0.0349357522,46.2704819 0.178373564,46.026328 0.83570306,45.9541516 C1.39227197,45.8933501 1.95515596,45.8899647 2.51537359,45.8714128 C6.42819618,45.7443932 10.3414398,45.6189986 14.2542624,45.4933331 C14.8817005,45.4730208 15.509279,45.4468856 16.1372784,45.431042 C16.9759208,45.4091048 17.3371433,45.7216434 17.5004933,46.5230315 C17.8242464,48.1094225 18.4578592,49.5579607 19.6800374,50.7057413 C20.6868013,51.6509405 21.8678613,52.0080309 23.2785094,51.7195961 C24.6146397,51.4465988 25.3274015,49.6713033 24.1624801,48.6634068 C23.1080023,47.751926 21.9524833,46.9883187 20.7220254,46.3410333 C17.6164101,44.7077886 14.4867976,43.1158456 11.3632195,41.5146943 C8.62696615,40.1128745 6.11679264,38.4261407 4.078566,36.1449335 C2.57333197,34.4605018 1.43577585,32.5816136 0.971547414,30.3779994 C0.431397706,27.8141803 0.994001026,25.438724 2.387809,23.2296932 C3.98285748,20.7018946 6.26302179,18.888412 8.92265216,17.4902484 C11.647398,16.0570122 14.5760507,15.2091766 17.6303033,14.743754 C20.8968829,14.24529 24.1777766,14.1932905 27.4620384,14.5174749 C31.7742546,14.9437625 35.885511,16.0098876 39.6014435,18.2442411 C40.3362379,18.685966 41.0129337,19.2186901 41.7146091,19.7102479 C41.818878,19.7833722 41.9200596,19.8611006 42.060956,19.9656412 L42.060956,19.9656412 Z" id="Fill-2"></path>
            </g>
        </g>
    </g>
</svg>